<svg width="91" height="91" viewBox="0 0 91 91" fill="none" xmlns="http://www.w3.org/2000/svg">
<circle cx="45.5492" cy="45.5001" r="44.3497" stroke="white"/>
<path d="M36.2742 20.9455C36.0994 20.8386 35.9587 20.6841 35.8685 20.5002C35.7784 20.3162 35.7425 20.1103 35.7651 19.9067C35.7877 19.703 35.8679 19.51 35.9963 19.3503C36.1246 19.1906 36.2958 19.0708 36.4898 19.0049C40.4182 17.6459 44.6003 17.1803 48.7314 17.6419C52.8625 18.1035 56.8386 19.4807 60.3702 21.6732C60.5016 21.7517 60.6148 21.8572 60.7022 21.9827C60.7897 22.1083 60.8494 22.251 60.8775 22.4014C60.9055 22.5518 60.9012 22.7065 60.8649 22.8551C60.8285 23.0038 60.761 23.143 60.6666 23.2635C57.5329 27.2401 53.7072 30.6184 49.3734 33.2361C45.866 28.3104 41.4131 24.1323 36.2742 20.9455ZM45.5191 35.2575C41.5729 29.8958 36.3965 25.5606 30.4254 22.6166C30.2491 22.5367 30.0556 22.5023 29.8626 22.5164C29.6696 22.5305 29.4832 22.5928 29.3204 22.6975C24.4891 26.1771 20.8771 31.0906 18.9974 36.7399C18.9529 36.8833 18.9389 37.0344 18.9562 37.1836C18.9735 37.3327 19.0217 37.4766 19.0978 37.606C19.174 37.7354 19.2763 37.8475 19.3982 37.935C19.5201 38.0226 19.659 38.0837 19.806 38.1145C22.6225 38.7224 25.4956 39.0295 28.377 39.0309C34.2979 39.0384 40.1487 37.7505 45.5191 35.2575ZM73.4963 42.454C72.8068 36.2021 70.0348 30.3638 65.626 25.8779C65.5171 25.7719 65.3876 25.6894 65.2454 25.6357C65.1033 25.5821 64.9515 25.5583 64.7998 25.5659C64.648 25.5734 64.4994 25.6122 64.3633 25.6799C64.2272 25.7475 64.1066 25.8424 64.0088 25.9588C60.6005 30.3084 56.4261 33.9986 51.6913 36.8478C53.1682 39.4106 54.3957 42.1093 55.3569 44.9067C59.2143 43.8636 63.1933 43.3379 67.1893 43.3434C68.9005 43.3474 70.6101 43.4464 72.3103 43.6399C72.4702 43.6569 72.6319 43.6379 72.7835 43.5843C72.9351 43.5307 73.0728 43.4439 73.1865 43.3302C73.3002 43.2164 73.387 43.0788 73.4406 42.9271C73.4942 42.7755 73.5132 42.6139 73.4963 42.454ZM56.5428 49.0574C57.3347 52.4595 57.7326 55.9413 57.7288 59.4343C57.7268 62.7712 57.3562 66.0976 56.6237 69.353C56.5757 69.5532 56.586 69.763 56.6534 69.9575C56.7208 70.152 56.8424 70.3232 57.004 70.4507C57.1656 70.5783 57.3603 70.6569 57.5652 70.6773C57.77 70.6977 57.9764 70.6591 58.16 70.5659C62.2499 68.5203 65.7778 65.506 68.4366 61.7856C71.0954 58.0651 72.8046 53.7511 73.4154 49.2192C73.4342 49.0774 73.4247 48.9333 73.3873 48.7953C73.3499 48.6573 73.2855 48.5281 73.1977 48.4152C73.1099 48.3023 73.0005 48.208 72.8759 48.1378C72.7514 48.0676 72.6141 48.0229 72.472 48.0063C70.7214 47.7671 68.9562 47.65 67.1893 47.6559C63.5942 47.6514 60.0143 48.1227 56.5428 49.0574ZM51.2331 46.2543C50.379 43.7003 49.2588 41.243 47.8909 38.9231C41.7997 41.8402 35.1307 43.3508 28.377 43.3434C25.2152 43.3417 22.0623 43.0074 18.9704 42.3462C18.8207 42.3151 18.666 42.3162 18.5167 42.3495C18.3674 42.3828 18.2269 42.4475 18.1046 42.5393C17.9822 42.6311 17.8807 42.7478 17.807 42.8818C17.7332 43.0158 17.6888 43.164 17.6767 43.3165C17.6228 44.0352 17.5958 44.7629 17.5958 45.4997C17.5945 49.3375 18.3835 53.1345 19.9137 56.6541C21.444 60.1737 23.6827 63.3404 26.4903 65.9569C26.606 66.0681 26.7456 66.1512 26.8984 66.2C27.0512 66.2489 27.2131 66.2621 27.3718 66.2387C27.5305 66.2153 27.6818 66.1558 27.8139 66.065C27.9461 65.9741 28.0558 65.8542 28.1344 65.7144C33.3934 56.7867 41.5423 49.9215 51.2331 46.2543ZM31.5305 68.4636C31.4586 68.5872 31.412 68.7238 31.3934 68.8656C31.3748 69.0074 31.3846 69.1515 31.4222 69.2894C31.4599 69.4274 31.5246 69.5565 31.6126 69.6692C31.7006 69.7819 31.8101 69.876 31.9348 69.946C36.112 72.305 40.8296 73.5401 45.6269 73.5307C47.2629 73.5379 48.896 73.3935 50.5054 73.0995C50.6917 73.0686 50.8658 72.9867 51.0085 72.8631C51.1512 72.7394 51.2569 72.5787 51.314 72.3987C52.712 68.2196 53.422 63.8411 53.4163 59.4343C53.4148 56.3972 53.0804 53.3694 52.419 50.4051C43.5902 53.8492 36.2148 60.2254 31.5305 68.4636Z" fill="white"/>
</svg>
