<svg width="90" height="91" viewBox="0 0 90 91" fill="none" xmlns="http://www.w3.org/2000/svg">
<circle cx="44.8497" cy="45.5001" r="44.3497" stroke="white"/>
<path d="M28.7107 34.4534C31.49 34.4534 33.7431 32.2003 33.7431 29.421C33.7431 26.6417 31.49 24.3887 28.7107 24.3887C25.9314 24.3887 23.6783 26.6417 23.6783 29.421C23.6783 32.2003 25.9314 34.4534 28.7107 34.4534Z" fill="white"/>
<path d="M38.4948 38.2667V66.1862H47.1634V52.3794C47.1634 48.7362 47.8488 45.208 52.366 45.208C56.8211 45.208 56.8763 49.3733 56.8763 52.6094V66.1885H65.5495V50.8775C65.5495 43.3565 63.9303 37.5767 55.1398 37.5767C50.9193 37.5767 48.0903 39.8927 46.9334 42.0846H46.8161V38.2667H38.4948ZM24.3683 38.2667H33.0507V66.1862H24.3683V38.2667Z" fill="white"/>
</svg>
