<svg width="468" height="500" viewBox="0 0 468 500" fill="none" xmlns="http://www.w3.org/2000/svg">
<path d="M109.953 35.2148C108.55 35.2148 107.239 35.0645 106.022 34.7637C104.819 34.4486 103.852 34.0762 103.121 33.6465C102.405 33.2025 102.047 32.8014 102.047 32.4434C102.047 32.2428 102.126 31.9779 102.284 31.6484C102.455 31.319 102.649 31.0254 102.864 30.7676C103.078 30.5098 103.25 30.3809 103.379 30.3809C103.494 30.3809 103.744 30.4954 104.131 30.7246C105.019 31.1829 105.9 31.5625 106.774 31.8633C107.647 32.1641 108.707 32.3145 109.953 32.3145C110.927 32.3145 111.794 32.1283 112.553 31.7559C113.312 31.3835 113.899 30.8607 114.315 30.1875C114.744 29.5 114.959 28.7122 114.959 27.8242C114.959 26.8789 114.702 26.0983 114.186 25.4824C113.685 24.8522 113.069 24.3581 112.338 24C111.622 23.6276 110.577 23.1693 109.202 22.625C107.712 22.0521 106.53 21.5221 105.657 21.0352C104.797 20.5339 104.06 19.8105 103.444 18.8652C102.842 17.9199 102.541 16.6667 102.541 15.1055C102.541 13.7448 102.892 12.5273 103.594 11.4531C104.296 10.3646 105.291 9.51953 106.58 8.91797C107.869 8.31641 109.352 8.01562 111.028 8.01562C111.787 8.01562 112.653 8.12305 113.627 8.33789C114.601 8.53841 115.432 8.81771 116.119 9.17578C116.821 9.53385 117.172 9.92773 117.172 10.3574C117.172 10.5436 117.093 10.8014 116.936 11.1309C116.793 11.446 116.621 11.7324 116.42 11.9902C116.22 12.248 116.062 12.377 115.948 12.377C115.819 12.377 115.561 12.2695 115.174 12.0547C114.53 11.7109 113.892 11.4388 113.262 11.2383C112.632 11.0234 111.866 10.916 110.963 10.916C109.488 10.916 108.292 11.2956 107.375 12.0547C106.473 12.8138 106.022 13.8737 106.022 15.2344C106.022 16.0508 106.222 16.724 106.623 17.2539C107.024 17.7839 107.533 18.2064 108.149 18.5215C108.765 18.8366 109.624 19.2018 110.727 19.6172C110.799 19.6315 110.963 19.6888 111.221 19.7891C112.739 20.3763 113.978 20.9492 114.938 21.5078C115.912 22.0521 116.735 22.8398 117.409 23.8711C118.096 24.9023 118.44 26.2201 118.44 27.8242C118.44 29.3281 118.089 30.6387 117.387 31.7559C116.7 32.873 115.711 33.7324 114.422 34.334C113.147 34.9212 111.658 35.2148 109.953 35.2148ZM129.157 35.2148C125.992 35.2148 123.628 34.4056 122.067 32.7871C120.52 31.1543 119.747 28.5332 119.747 24.9238C119.747 21.2715 120.613 18.6719 122.347 17.125C124.08 15.5781 126.235 14.8047 128.813 14.8047C129.773 14.8047 130.697 14.8906 131.585 15.0625C132.473 15.2201 133.189 15.4349 133.733 15.707C134.278 15.9792 134.55 16.2656 134.55 16.5664C134.55 16.7669 134.478 17.0319 134.335 17.3613C134.206 17.6908 134.041 17.9844 133.841 18.2422C133.654 18.4857 133.483 18.6074 133.325 18.6074C133.282 18.6074 133.218 18.5931 133.132 18.5645C133.046 18.5215 132.967 18.4857 132.895 18.457C131.606 17.8555 130.217 17.5547 128.727 17.5547C126.966 17.5547 125.605 18.1348 124.645 19.2949C123.686 20.4408 123.206 22.2884 123.206 24.8379C123.206 26.6426 123.399 28.1035 123.786 29.2207C124.173 30.3236 124.796 31.14 125.655 31.6699C126.529 32.1999 127.689 32.4648 129.136 32.4648C130.725 32.4648 132.158 32.1354 133.432 31.4766C133.561 31.4479 133.654 31.4193 133.712 31.3906C133.783 31.3477 133.834 31.3262 133.862 31.3262C134.02 31.3262 134.199 31.4479 134.399 31.6914C134.6 31.9349 134.772 32.2142 134.915 32.5293C135.072 32.8444 135.151 33.0951 135.151 33.2812C135.151 33.582 134.879 33.8828 134.335 34.1836C133.791 34.4844 133.053 34.735 132.122 34.9355C131.205 35.1217 130.217 35.2148 129.157 35.2148ZM142.71 35.2148C140.762 35.2148 139.187 34.735 137.984 33.7754C136.781 32.8158 136.179 31.3906 136.179 29.5C136.179 27.5091 136.788 26.0124 138.005 25.0098C139.223 23.9928 140.705 23.3411 142.452 23.0547C144.214 22.7539 146.348 22.582 148.855 22.5391V20.7344C148.855 19.7747 148.525 19.0085 147.867 18.4355C147.222 17.8483 146.155 17.5547 144.665 17.5547C143.534 17.5547 142.538 17.6908 141.679 17.9629C140.834 18.2207 140.039 18.5358 139.294 18.9082C138.979 19.0658 138.786 19.1445 138.714 19.1445C138.542 19.1445 138.349 19.0228 138.134 18.7793C137.934 18.5215 137.755 18.235 137.597 17.9199C137.454 17.6048 137.382 17.3757 137.382 17.2324C137.382 16.903 137.719 16.5449 138.392 16.1582C139.079 15.7715 139.975 15.4492 141.077 15.1914C142.18 14.9336 143.333 14.8047 144.536 14.8047C146.928 14.8047 148.783 15.3275 150.101 16.373C151.419 17.4186 152.077 18.8867 152.077 20.7773V29.3496C152.077 31.0111 152.149 32.2142 152.292 32.959C152.45 33.6895 152.529 34.0905 152.529 34.1621C152.529 34.4772 152.285 34.7064 151.798 34.8496C151.326 34.9785 150.881 35.043 150.466 35.043C150.122 35.043 149.865 34.8496 149.693 34.4629C149.535 34.0762 149.378 33.5176 149.22 32.7871L149.134 32.3574C148.346 33.2311 147.415 33.9258 146.341 34.4414C145.281 34.957 144.071 35.2148 142.71 35.2148ZM142.882 32.4434C144.143 32.4434 145.217 32.2142 146.105 31.7559C146.993 31.2975 147.909 30.6458 148.855 29.8008V25.2891C146.964 25.3034 145.41 25.3822 144.193 25.5254C142.975 25.6686 141.908 26.0339 140.992 26.6211C140.075 27.194 139.617 28.0892 139.617 29.3066C139.617 30.3236 139.889 31.1042 140.433 31.6484C140.992 32.1784 141.808 32.4434 142.882 32.4434ZM158.004 35.0645C157.459 35.0645 157.066 35 156.822 34.8711C156.579 34.7279 156.457 34.513 156.457 34.2266V20.8203C156.457 19.1589 156.378 17.9629 156.221 17.2324C156.063 16.4876 155.984 16.0794 155.984 16.0078C155.984 15.6927 156.221 15.4707 156.693 15.3418C157.18 15.1986 157.638 15.127 158.068 15.127C158.426 15.127 158.691 15.3203 158.863 15.707C159.035 16.0938 159.157 16.4876 159.228 16.8887C159.314 17.2897 159.372 17.5475 159.4 17.6621C160.202 16.7598 161.126 16.0579 162.172 15.5566C163.232 15.0553 164.299 14.8047 165.373 14.8047C167.321 14.8047 168.839 15.3561 169.928 16.459C171.03 17.5475 171.582 19.0514 171.582 20.9707V34.2266C171.582 34.513 171.46 34.7279 171.217 34.8711C170.973 35 170.586 35.0645 170.056 35.0645H169.885C169.369 35.0645 168.989 35 168.746 34.8711C168.502 34.7279 168.381 34.513 168.381 34.2266V21.293C168.381 20.1185 168.037 19.209 167.349 18.5645C166.676 17.9056 165.724 17.5762 164.492 17.5762C163.633 17.5762 162.766 17.8197 161.892 18.3066C161.033 18.7793 160.288 19.431 159.658 20.2617V34.2266C159.658 34.513 159.536 34.7279 159.293 34.8711C159.049 35 158.67 35.0645 158.154 35.0645H158.004ZM188.698 35.2148C187.423 35.2148 186.285 34.8281 185.282 34.0547C184.279 33.2812 183.778 31.9134 183.778 29.9512V17.7695H181.866C181.594 17.7695 181.393 17.6836 181.264 17.5117C181.15 17.3255 181.093 17.0319 181.093 16.6309V16.1582C181.093 15.7572 181.15 15.4707 181.264 15.2988C181.393 15.1126 181.594 15.0195 181.866 15.0195H183.778L184.229 11.0234C184.258 10.4648 184.666 10.1855 185.454 10.1855H185.819C186.22 10.1855 186.514 10.2572 186.7 10.4004C186.886 10.5293 186.979 10.737 186.979 11.0234V15.0195H190.18C190.453 15.0195 190.646 15.1126 190.76 15.2988C190.889 15.4707 190.954 15.7572 190.954 16.1582V16.6309C190.954 17.0319 190.889 17.3255 190.76 17.5117C190.646 17.6836 190.453 17.7695 190.18 17.7695H186.979V29.6504C186.979 30.696 187.158 31.4264 187.516 31.8418C187.889 32.2572 188.39 32.4648 189.02 32.4648C189.507 32.4648 189.88 32.4362 190.137 32.3789C190.41 32.3216 190.589 32.293 190.675 32.293C190.904 32.293 191.09 32.5221 191.233 32.9805C191.391 33.4388 191.469 33.804 191.469 34.0762C191.469 34.8353 190.546 35.2148 188.698 35.2148ZM195.849 35.0645C194.832 35.0645 194.323 34.7852 194.323 34.2266V7.11328C194.323 6.55469 194.832 6.27539 195.849 6.27539H195.999C197.031 6.27539 197.546 6.55469 197.546 7.11328V17.4258C198.291 16.6667 199.165 16.0436 200.167 15.5566C201.17 15.0553 202.237 14.8047 203.368 14.8047C204.973 14.8047 206.383 15.2559 207.601 16.1582C208.833 17.0605 209.448 18.6647 209.448 20.9707V34.2266C209.448 34.7852 208.94 35.0645 207.923 35.0645H207.773C206.741 35.0645 206.226 34.7852 206.226 34.2266V21.293C206.226 20.1328 205.896 19.2233 205.238 18.5645C204.579 17.9056 203.612 17.5762 202.337 17.5762C201.492 17.5762 200.712 17.7767 199.995 18.1777C199.294 18.5788 198.706 19.0156 198.234 19.4883C197.775 19.9466 197.546 20.2044 197.546 20.2617V34.2266C197.546 34.7852 197.031 35.0645 195.999 35.0645H195.849ZM221.906 35.2148C218.741 35.2148 216.384 34.3913 214.838 32.7441C213.305 31.0827 212.539 28.5475 212.539 25.1387C212.539 21.7585 213.291 19.1947 214.795 17.4473C216.299 15.6855 218.511 14.8047 221.433 14.8047C224.04 14.8047 226.002 15.6497 227.32 17.3398C228.652 19.0299 229.318 21.5078 229.318 24.7734C229.318 24.9167 229.239 25.1172 229.082 25.375C228.939 25.6185 228.759 25.8405 228.545 26.041C228.344 26.2272 228.172 26.3203 228.029 26.3203H215.976C216.134 28.4544 216.678 30.0156 217.609 31.0039C218.554 31.9779 219.972 32.4648 221.863 32.4648C222.923 32.4648 223.832 32.3359 224.592 32.0781C225.365 31.8203 226.11 31.5052 226.826 31.1328C226.898 31.1042 227.005 31.054 227.148 30.9824C227.291 30.9108 227.392 30.875 227.449 30.875C227.606 30.875 227.786 31.0039 227.986 31.2617C228.201 31.5052 228.38 31.7845 228.523 32.0996C228.681 32.4004 228.759 32.6224 228.759 32.7656C228.759 33.0807 228.444 33.4316 227.814 33.8184C227.184 34.2051 226.339 34.5345 225.279 34.8066C224.233 35.0788 223.109 35.2148 221.906 35.2148ZM225.902 23.5703C225.902 19.5599 224.377 17.5547 221.326 17.5547C218.046 17.5547 216.263 19.5599 215.976 23.5703H225.902ZM260.829 40.6504C260.643 40.6504 258.645 39.8984 254.835 38.3945C251.025 36.9049 248.704 35.9954 247.874 35.666C246.785 35.2077 246.055 34.9141 245.682 34.7852C243.276 33.8112 241.471 32.25 240.268 30.1016C239.079 27.9388 238.485 25.153 238.485 21.7441C238.485 17.2611 239.488 13.8522 241.493 11.5176C243.498 9.18294 246.413 8.01562 250.237 8.01562C254.076 8.01562 256.997 9.1901 259.003 11.5391C261.022 13.8737 262.032 17.2754 262.032 21.7441C262.032 25.3535 261.373 28.2682 260.055 30.4883C258.752 32.694 256.854 34.1335 254.362 34.8066V34.957L261.882 37.3418C262.24 37.4421 262.419 37.6283 262.419 37.9004C262.419 38.0866 262.34 38.4089 262.182 38.8672C262.025 39.3255 261.824 39.7337 261.581 40.0918C261.337 40.4642 261.087 40.6504 260.829 40.6504ZM250.237 32.4434C252.901 32.4434 254.956 31.5267 256.403 29.6934C257.85 27.8457 258.573 25.196 258.573 21.7441C258.573 19.4382 258.243 17.4759 257.585 15.8574C256.94 14.2389 255.995 13.0143 254.749 12.1836C253.503 11.3385 251.999 10.916 250.237 10.916C248.49 10.916 246.993 11.3385 245.747 12.1836C244.515 13.0143 243.57 14.2389 242.911 15.8574C242.266 17.4759 241.944 19.4382 241.944 21.7441C241.944 25.2103 242.66 27.86 244.092 29.6934C245.539 31.5267 247.587 32.4434 250.237 32.4434ZM267.486 35.0645C266.454 35.0645 265.939 34.7852 265.939 34.2266V9.41211C265.939 9.01107 266.032 8.72461 266.218 8.55273C266.404 8.36654 266.698 8.27344 267.099 8.27344H273.523C276.573 8.27344 278.865 8.81055 280.398 9.88477C281.944 10.959 282.718 12.6706 282.718 15.0195C282.718 16.6094 282.331 17.9486 281.558 19.0371C280.799 20.1113 279.724 20.9206 278.335 21.4648V21.6152C279.08 21.873 279.689 22.3743 280.161 23.1191C280.648 23.8496 281.185 24.9382 281.773 26.3848L284.759 33.9258C284.831 34.1836 284.866 34.3626 284.866 34.4629C284.866 34.8639 284.329 35.0645 283.255 35.0645H282.868C282.482 35.0645 282.145 35.0143 281.859 34.9141C281.586 34.7995 281.415 34.6491 281.343 34.4629L278.443 26.9648C278.07 25.9909 277.633 25.2318 277.132 24.6875C276.631 24.1432 276.036 23.7637 275.349 23.5488C274.661 23.334 273.795 23.2266 272.749 23.2266H269.312V34.2266C269.312 34.7852 268.803 35.0645 267.786 35.0645H267.486ZM274.339 20.3262C275.241 20.3262 276.065 20.1113 276.81 19.6816C277.569 19.252 278.163 18.679 278.593 17.9629C279.037 17.2324 279.259 16.459 279.259 15.6426C279.259 14.1387 278.801 13.0215 277.884 12.291C276.967 11.5462 275.7 11.1738 274.081 11.1738H269.312V20.3262H274.339ZM302.197 35.2148C299.032 35.2148 296.669 34.4056 295.108 32.7871C293.561 31.1543 292.787 28.5332 292.787 24.9238C292.787 21.2715 293.654 18.6719 295.387 17.125C297.12 15.5781 299.276 14.8047 301.854 14.8047C302.813 14.8047 303.737 14.8906 304.625 15.0625C305.513 15.2201 306.229 15.4349 306.774 15.707C307.318 15.9792 307.59 16.2656 307.59 16.5664C307.59 16.7669 307.518 17.0319 307.375 17.3613C307.246 17.6908 307.082 17.9844 306.881 18.2422C306.695 18.4857 306.523 18.6074 306.365 18.6074C306.322 18.6074 306.258 18.5931 306.172 18.5645C306.086 18.5215 306.007 18.4857 305.936 18.457C304.647 17.8555 303.257 17.5547 301.768 17.5547C300.006 17.5547 298.645 18.1348 297.686 19.2949C296.726 20.4408 296.246 22.2884 296.246 24.8379C296.246 26.6426 296.44 28.1035 296.826 29.2207C297.213 30.3236 297.836 31.14 298.695 31.6699C299.569 32.1999 300.729 32.4648 302.176 32.4648C303.766 32.4648 305.198 32.1354 306.473 31.4766C306.602 31.4479 306.695 31.4193 306.752 31.3906C306.824 31.3477 306.874 31.3262 306.902 31.3262C307.06 31.3262 307.239 31.4479 307.44 31.6914C307.64 31.9349 307.812 32.2142 307.955 32.5293C308.113 32.8444 308.192 33.0951 308.192 33.2812C308.192 33.582 307.919 33.8828 307.375 34.1836C306.831 34.4844 306.093 34.735 305.162 34.9355C304.246 35.1217 303.257 35.2148 302.197 35.2148ZM318.307 35.2148C315.428 35.2148 313.23 34.3555 311.712 32.6367C310.208 30.9036 309.456 28.39 309.456 25.0957C309.456 21.8014 310.222 19.2663 311.754 17.4902C313.287 15.6999 315.471 14.8047 318.307 14.8047C321.115 14.8047 323.263 15.6927 324.753 17.4688C326.242 19.2305 326.987 21.7728 326.987 25.0957C326.987 28.4043 326.249 30.918 324.774 32.6367C323.313 34.3555 321.157 35.2148 318.307 35.2148ZM318.2 32.4648C320.062 32.4648 321.437 31.8633 322.325 30.6602C323.213 29.4427 323.657 27.5664 323.657 25.0312C323.657 22.4818 323.213 20.5983 322.325 19.3809C321.437 18.1634 320.062 17.5547 318.2 17.5547C316.352 17.5547 314.991 18.1634 314.118 19.3809C313.244 20.584 312.807 22.4674 312.807 25.0312C312.807 27.5807 313.237 29.457 314.096 30.6602C314.97 31.8633 316.338 32.4648 318.2 32.4648ZM336.501 35.2148C335.011 35.2148 333.708 34.7852 332.591 33.9258C331.474 33.0521 330.607 31.8418 329.991 30.2949C329.39 28.748 329.089 26.9935 329.089 25.0312C329.089 22.8685 329.411 21.0208 330.056 19.4883C330.715 17.9414 331.631 16.7741 332.806 15.9863C333.98 15.1986 335.334 14.8047 336.866 14.8047C337.969 14.8047 338.943 14.9694 339.788 15.2988C340.648 15.6283 341.493 16.1081 342.323 16.7383V7.11328C342.323 6.55469 342.825 6.27539 343.827 6.27539H343.999C345.016 6.27539 345.524 6.55469 345.524 7.11328V29.3496C345.524 31.0111 345.603 32.2142 345.761 32.959C345.918 33.6895 345.997 34.0905 345.997 34.1621C345.997 34.4772 345.754 34.7064 345.267 34.8496C344.794 34.9785 344.35 35.043 343.935 35.043C343.648 35.043 343.419 34.9069 343.247 34.6348C343.075 34.3626 342.954 34.0905 342.882 33.8184C342.825 33.5319 342.724 33.0449 342.581 32.3574C340.762 34.2624 338.735 35.2148 336.501 35.2148ZM337.167 32.4434C338.012 32.4434 338.886 32.2142 339.788 31.7559C340.705 31.2975 341.55 30.6458 342.323 29.8008V19.3379C340.948 18.1921 339.38 17.6191 337.618 17.6191C335.914 17.6621 334.625 18.2852 333.751 19.4883C332.892 20.6914 332.462 22.4388 332.462 24.7305C332.462 27.194 332.863 29.099 333.665 30.4453C334.482 31.7773 335.649 32.4434 337.167 32.4434ZM358.218 35.2148C355.053 35.2148 352.697 34.3913 351.15 32.7441C349.617 31.0827 348.851 28.5475 348.851 25.1387C348.851 21.7585 349.603 19.1947 351.107 17.4473C352.611 15.6855 354.824 14.8047 357.746 14.8047C360.352 14.8047 362.315 15.6497 363.632 17.3398C364.964 19.0299 365.63 21.5078 365.63 24.7734C365.63 24.9167 365.552 25.1172 365.394 25.375C365.251 25.6185 365.072 25.8405 364.857 26.041C364.656 26.2272 364.485 26.3203 364.341 26.3203H352.289C352.446 28.4544 352.99 30.0156 353.921 31.0039C354.867 31.9779 356.285 32.4648 358.175 32.4648C359.235 32.4648 360.145 32.3359 360.904 32.0781C361.677 31.8203 362.422 31.5052 363.138 31.1328C363.21 31.1042 363.317 31.054 363.461 30.9824C363.604 30.9108 363.704 30.875 363.761 30.875C363.919 30.875 364.098 31.0039 364.298 31.2617C364.513 31.5052 364.692 31.7845 364.836 32.0996C364.993 32.4004 365.072 32.6224 365.072 32.7656C365.072 33.0807 364.757 33.4316 364.127 33.8184C363.496 34.2051 362.651 34.5345 361.591 34.8066C360.546 35.0788 359.421 35.2148 358.218 35.2148ZM362.214 23.5703C362.214 19.5599 360.689 17.5547 357.638 17.5547C354.358 17.5547 352.575 19.5599 352.289 23.5703H362.214Z" fill="white"/>
<rect x="61.5" y="88" width="345" height="412" rx="56" fill="url(#paint0_linear_213_37)"/>
<rect x="61.5" y="88" width="345" height="412" rx="56" fill="#E8E7E7"/>
<path d="M207.68 136H200.16V143.52H207.68V136Z" fill="black"/>
<path d="M215.2 136H207.68V143.52H215.2V136Z" fill="black"/>
<path d="M230.24 136H222.72V143.52H230.24V136Z" fill="black"/>
<path d="M245.28 136H237.76V143.52H245.28V136Z" fill="black"/>
<path d="M207.68 143.52H200.16L200.16 151.04H207.68L207.68 143.52Z" fill="black"/>
<path d="M245.28 143.52H237.76V151.04H245.28V143.52Z" fill="black"/>
<path d="M267.84 143.52H260.32V151.04H267.84V143.52Z" fill="black"/>
<path d="M207.68 151.04H200.16L200.16 158.56H207.68L207.68 151.04Z" fill="black"/>
<path d="M222.72 151.04H215.2V158.56H222.72V151.04Z" fill="black"/>
<path d="M230.24 151.04H222.72V158.56H230.24V151.04Z" fill="black"/>
<path d="M245.28 151.04H237.76V158.56H245.28V151.04Z" fill="black"/>
<path d="M260.32 151.04L252.8 151.04V158.56H260.32L260.32 151.04Z" fill="black"/>
<path d="M267.84 151.04H260.32L260.32 158.56H267.84L267.84 151.04Z" fill="black"/>
<path d="M222.72 158.56H215.2V166.08H222.72V158.56Z" fill="black"/>
<path d="M230.24 158.56H222.72V166.08H230.24V158.56Z" fill="black"/>
<path d="M237.76 158.56H230.24V166.08H237.76L237.76 158.56Z" fill="black"/>
<path d="M245.28 158.56H237.76L237.76 166.08H245.28V158.56Z" fill="black"/>
<path d="M260.32 158.56H252.8V166.08H260.32V158.56Z" fill="black"/>
<path d="M267.84 158.56H260.32V166.08H267.84V158.56Z" fill="black"/>
<path d="M207.68 166.08H200.16V173.6H207.68V166.08Z" fill="black"/>
<path d="M215.2 166.08L207.68 166.08V173.6H215.2L215.2 166.08Z" fill="black"/>
<path d="M222.72 166.08H215.2L215.2 173.6H222.72V166.08Z" fill="black"/>
<path d="M237.76 166.08H230.24L230.24 173.6H237.76L237.76 166.08Z" fill="black"/>
<path d="M267.84 166.08H260.32L260.32 173.6H267.84V166.08Z" fill="black"/>
<path d="M222.72 173.6H215.2L215.2 181.12H222.72V173.6Z" fill="black"/>
<path d="M237.76 173.6H230.24L230.24 181.12H237.76L237.76 173.6Z" fill="black"/>
<path d="M252.8 173.6H245.28V181.12H252.8V173.6Z" fill="black"/>
<path d="M267.84 173.6H260.32L260.32 181.12H267.84L267.84 173.6Z" fill="black"/>
<path d="M207.68 181.12H200.16V188.64H207.68V181.12Z" fill="black"/>
<path d="M222.72 181.12H215.2V188.64H222.72V181.12Z" fill="black"/>
<path d="M237.76 181.12H230.24L230.24 188.64H237.76L237.76 181.12Z" fill="black"/>
<path d="M252.8 181.12H245.28V188.64H252.8V181.12Z" fill="black"/>
<path d="M267.84 181.12H260.32L260.32 188.64H267.84L267.84 181.12Z" fill="black"/>
<path d="M230.24 188.64H222.72L222.72 196.16H230.24L230.24 188.64Z" fill="black"/>
<path d="M237.76 188.64H230.24L230.24 196.16H237.76L237.76 188.64Z" fill="black"/>
<path d="M245.28 188.64H237.76L237.76 196.16H245.28L245.28 188.64Z" fill="black"/>
<path d="M267.84 188.64H260.32L260.32 196.16H267.84L267.84 188.64Z" fill="black"/>
<path d="M147.52 196.16H140V203.68H147.52V196.16Z" fill="black"/>
<path d="M170.08 196.16H162.56V203.68H170.08V196.16Z" fill="black"/>
<path d="M177.6 196.16H170.08V203.68H177.6V196.16Z" fill="black"/>
<path d="M185.12 196.16H177.6V203.68H185.12V196.16Z" fill="black"/>
<path d="M192.64 196.16H185.12V203.68H192.64V196.16Z" fill="black"/>
<path d="M200.16 196.16H192.64V203.68H200.16V196.16Z" fill="black"/>
<path d="M207.68 196.16H200.16V203.68H207.68V196.16Z" fill="black"/>
<path d="M215.2 196.16H207.68V203.68H215.2V196.16Z" fill="black"/>
<path d="M222.72 196.16L215.2 196.16V203.68H222.72L222.72 196.16Z" fill="black"/>
<path d="M230.24 196.16H222.72L222.72 203.68H230.24L230.24 196.16Z" fill="black"/>
<path d="M237.76 196.16H230.24L230.24 203.68H237.76L237.76 196.16Z" fill="black"/>
<path d="M252.8 196.16L245.28 196.16L245.28 203.68H252.8V196.16Z" fill="black"/>
<path d="M260.32 196.16L252.8 196.16V203.68H260.32L260.32 196.16Z" fill="black"/>
<path d="M275.36 196.16L267.84 196.16L267.84 203.68H275.36V196.16Z" fill="black"/>
<path d="M297.92 196.16H290.4V203.68H297.92V196.16Z" fill="black"/>
<path d="M312.96 196.16H305.44V203.68H312.96V196.16Z" fill="black"/>
<path d="M320.48 196.16H312.96V203.68H320.48V196.16Z" fill="black"/>
<path d="M328 196.16H320.48V203.68H328V196.16Z" fill="black"/>
<path d="M147.52 203.68H140V211.2H147.52V203.68Z" fill="black"/>
<path d="M162.56 203.68L155.04 203.68V211.2H162.56L162.56 203.68Z" fill="black"/>
<path d="M170.08 203.68H162.56L162.56 211.2H170.08L170.08 203.68Z" fill="black"/>
<path d="M177.6 203.68H170.08L170.08 211.2H177.6V203.68Z" fill="black"/>
<path d="M185.12 203.68H177.6V211.2H185.12V203.68Z" fill="black"/>
<path d="M200.16 203.68H192.64L192.64 211.2H200.16V203.68Z" fill="black"/>
<path d="M215.2 203.68H207.68L207.68 211.2H215.2V203.68Z" fill="black"/>
<path d="M230.24 203.68H222.72L222.72 211.2H230.24V203.68Z" fill="black"/>
<path d="M260.32 203.68H252.8L252.8 211.2H260.32V203.68Z" fill="black"/>
<path d="M297.92 203.68H290.4V211.2H297.92V203.68Z" fill="black"/>
<path d="M305.44 203.68H297.92V211.2H305.44L305.44 203.68Z" fill="black"/>
<path d="M312.96 203.68H305.44L305.44 211.2H312.96V203.68Z" fill="black"/>
<path d="M320.48 203.68H312.96V211.2H320.48V203.68Z" fill="black"/>
<path d="M162.56 211.2H155.04L155.04 218.72H162.56L162.56 211.2Z" fill="black"/>
<path d="M185.12 211.2H177.6L177.6 218.72H185.12L185.12 211.2Z" fill="black"/>
<path d="M192.64 211.2H185.12L185.12 218.72H192.64L192.64 211.2Z" fill="black"/>
<path d="M200.16 211.2H192.64L192.64 218.72H200.16V211.2Z" fill="black"/>
<path d="M215.2 211.2H207.68L207.68 218.72H215.2L215.2 211.2Z" fill="black"/>
<path d="M222.72 211.2H215.2L215.2 218.72H222.72L222.72 211.2Z" fill="black"/>
<path d="M252.8 211.2L245.28 211.2V218.72H252.8L252.8 211.2Z" fill="black"/>
<path d="M260.32 211.2H252.8L252.8 218.72H260.32L260.32 211.2Z" fill="black"/>
<path d="M267.84 211.2L260.32 211.2L260.32 218.72H267.84V211.2Z" fill="black"/>
<path d="M297.92 211.2H290.4V218.72H297.92V211.2Z" fill="black"/>
<path d="M305.44 211.2H297.92V218.72H305.44L305.44 211.2Z" fill="black"/>
<path d="M328 211.2L320.48 211.2L320.48 218.72H328V211.2Z" fill="black"/>
<path d="M162.56 218.72H155.04V226.24H162.56V218.72Z" fill="black"/>
<path d="M170.08 218.72L162.56 218.72V226.24L170.08 226.24V218.72Z" fill="black"/>
<path d="M177.6 218.72L170.08 218.72V226.24H177.6L177.6 218.72Z" fill="black"/>
<path d="M185.12 218.72H177.6L177.6 226.24L185.12 226.24L185.12 218.72Z" fill="black"/>
<path d="M207.68 218.72H200.16L200.16 226.24H207.68L207.68 218.72Z" fill="black"/>
<path d="M215.2 218.72H207.68L207.68 226.24H215.2L215.2 218.72Z" fill="black"/>
<path d="M230.24 218.72L222.72 218.72L222.72 226.24H230.24V218.72Z" fill="black"/>
<path d="M237.76 218.72H230.24V226.24H237.76V218.72Z" fill="black"/>
<path d="M275.36 218.72L267.84 218.72L267.84 226.24H275.36V218.72Z" fill="black"/>
<path d="M290.4 218.72L282.88 218.72V226.24H290.4L290.4 218.72Z" fill="black"/>
<path d="M305.44 218.72H297.92L297.92 226.24H305.44L305.44 218.72Z" fill="black"/>
<path d="M312.96 218.72L305.44 218.72L305.44 226.24H312.96V218.72Z" fill="black"/>
<path d="M320.48 218.72L312.96 218.72V226.24H320.48L320.48 218.72Z" fill="black"/>
<path d="M328 218.72H320.48L320.48 226.24H328L328 218.72Z" fill="black"/>
<path d="M147.52 226.24H140V233.76H147.52V226.24Z" fill="black"/>
<path d="M162.56 226.24H155.04L155.04 233.76H162.56L162.56 226.24Z" fill="black"/>
<path d="M170.08 226.24L162.56 226.24L162.56 233.76H170.08V226.24Z" fill="black"/>
<path d="M177.6 226.24H170.08V233.76H177.6V226.24Z" fill="black"/>
<path d="M185.12 226.24L177.6 226.24V233.76H185.12L185.12 226.24Z" fill="black"/>
<path d="M192.64 226.24L185.12 226.24L185.12 233.76H192.64V226.24Z" fill="black"/>
<path d="M200.16 226.24L192.64 226.24V233.76H200.16L200.16 226.24Z" fill="black"/>
<path d="M207.68 226.24H200.16L200.16 233.76H207.68L207.68 226.24Z" fill="black"/>
<path d="M215.2 226.24H207.68L207.68 233.76H215.2L215.2 226.24Z" fill="black"/>
<path d="M237.76 226.24H230.24L230.24 233.76H237.76L237.76 226.24Z" fill="black"/>
<path d="M245.28 226.24L237.76 226.24L237.76 233.76H245.28V226.24Z" fill="black"/>
<path d="M260.32 226.24H252.8V233.76H260.32V226.24Z" fill="black"/>
<path d="M267.84 226.24L260.32 226.24V233.76H267.84L267.84 226.24Z" fill="black"/>
<path d="M282.88 226.24H275.36L275.36 233.76H282.88L282.88 226.24Z" fill="black"/>
<path d="M328 226.24H320.48L320.48 233.76H328L328 226.24Z" fill="black"/>
<path d="M147.52 233.76H140V241.28H147.52V233.76Z" fill="black"/>
<path d="M155.04 233.76L147.52 233.76V241.28L155.04 241.28L155.04 233.76Z" fill="black"/>
<path d="M162.56 233.76H155.04L155.04 241.28H162.56L162.56 233.76Z" fill="black"/>
<path d="M200.16 233.76H192.64L192.64 241.28H200.16V233.76Z" fill="black"/>
<path d="M207.68 233.76H200.16V241.28H207.68V233.76Z" fill="black"/>
<path d="M260.32 233.76H252.8L252.8 241.28H260.32L260.32 233.76Z" fill="black"/>
<path d="M267.84 233.76H260.32L260.32 241.28H267.84L267.84 233.76Z" fill="black"/>
<path d="M297.92 233.76H290.4V241.28H297.92V233.76Z" fill="black"/>
<path d="M320.48 233.76L312.96 233.76V241.28H320.48L320.48 233.76Z" fill="black"/>
<path d="M147.52 241.28H140V248.8H147.52V241.28Z" fill="black"/>
<path d="M155.04 241.28L147.52 241.28V248.8L155.04 248.8L155.04 241.28Z" fill="black"/>
<path d="M162.56 241.28H155.04L155.04 248.8H162.56L162.56 241.28Z" fill="black"/>
<path d="M170.08 241.28L162.56 241.28L162.56 248.8L170.08 248.8V241.28Z" fill="black"/>
<path d="M192.64 241.28L185.12 241.28V248.8H192.64L192.64 241.28Z" fill="black"/>
<path d="M200.16 241.28H192.64L192.64 248.8L200.16 248.8L200.16 241.28Z" fill="black"/>
<path d="M207.68 241.28H200.16L200.16 248.8H207.68L207.68 241.28Z" fill="black"/>
<path d="M215.2 241.28L207.68 241.28L207.68 248.8H215.2V241.28Z" fill="black"/>
<path d="M222.72 241.28H215.2V248.8H222.72V241.28Z" fill="black"/>
<path d="M230.24 241.28H222.72V248.8H230.24V241.28Z" fill="black"/>
<path d="M237.76 241.28H230.24V248.8H237.76V241.28Z" fill="black"/>
<path d="M252.8 241.28L245.28 241.28V248.8H252.8L252.8 241.28Z" fill="black"/>
<path d="M260.32 241.28H252.8L252.8 248.8H260.32L260.32 241.28Z" fill="black"/>
<path d="M275.36 241.28L267.84 241.28L267.84 248.8H275.36V241.28Z" fill="black"/>
<path d="M297.92 241.28H290.4L290.4 248.8H297.92L297.92 241.28Z" fill="black"/>
<path d="M305.44 241.28L297.92 241.28L297.92 248.8H305.44V241.28Z" fill="black"/>
<path d="M312.96 241.28L305.44 241.28V248.8H312.96L312.96 241.28Z" fill="black"/>
<path d="M320.48 241.28H312.96L312.96 248.8H320.48L320.48 241.28Z" fill="black"/>
<path d="M328 241.28L320.48 241.28L320.48 248.8H328V241.28Z" fill="black"/>
<path d="M147.52 248.8H140V256.32H147.52V248.8Z" fill="black"/>
<path d="M162.56 248.8H155.04L155.04 256.32H162.56L162.56 248.8Z" fill="black"/>
<path d="M177.6 248.8L170.08 248.8L170.08 256.32H177.6V248.8Z" fill="black"/>
<path d="M185.12 248.8L177.6 248.8V256.32H185.12L185.12 248.8Z" fill="black"/>
<path d="M207.68 248.8H200.16L200.16 256.32H207.68L207.68 248.8Z" fill="black"/>
<path d="M215.2 248.8H207.68L207.68 256.32H215.2L215.2 248.8Z" fill="black"/>
<path d="M230.24 248.8H222.72L222.72 256.32H230.24L230.24 248.8Z" fill="black"/>
<path d="M260.32 248.8H252.8L252.8 256.32H260.32L260.32 248.8Z" fill="black"/>
<path d="M267.84 248.8H260.32L260.32 256.32H267.84L267.84 248.8Z" fill="black"/>
<path d="M275.36 248.8H267.84L267.84 256.32H275.36L275.36 248.8Z" fill="black"/>
<path d="M282.88 248.8L275.36 248.8L275.36 256.32H282.88V248.8Z" fill="black"/>
<path d="M290.4 248.8L282.88 248.8V256.32H290.4L290.4 248.8Z" fill="black"/>
<path d="M305.44 248.8H297.92L297.92 256.32H305.44L305.44 248.8Z" fill="black"/>
<path d="M312.96 248.8H305.44L305.44 256.32H312.96V248.8Z" fill="black"/>
<path d="M328 248.8H320.48L320.48 256.32H328L328 248.8Z" fill="black"/>
<path d="M147.52 256.32H140V263.84H147.52V256.32Z" fill="black"/>
<path d="M192.64 256.32L185.12 256.32L185.12 263.84H192.64V256.32Z" fill="black"/>
<path d="M215.2 256.32H207.68L207.68 263.84H215.2L215.2 256.32Z" fill="black"/>
<path d="M222.72 256.32H215.2L215.2 263.84H222.72L222.72 256.32Z" fill="black"/>
<path d="M245.28 256.32H237.76V263.84H245.28V256.32Z" fill="black"/>
<path d="M260.32 256.32H252.8V263.84H260.32V256.32Z" fill="black"/>
<path d="M267.84 256.32H260.32V263.84H267.84L267.84 256.32Z" fill="black"/>
<path d="M275.36 256.32H267.84L267.84 263.84H275.36L275.36 256.32Z" fill="black"/>
<path d="M282.88 256.32H275.36L275.36 263.84H282.88L282.88 256.32Z" fill="black"/>
<path d="M290.4 256.32H282.88L282.88 263.84H290.4L290.4 256.32Z" fill="black"/>
<path d="M297.92 256.32H290.4L290.4 263.84H297.92L297.92 256.32Z" fill="black"/>
<path d="M312.96 256.32H305.44L305.44 263.84H312.96L312.96 256.32Z" fill="black"/>
<path d="M320.48 256.32H312.96L312.96 263.84H320.48L320.48 256.32Z" fill="black"/>
<path d="M207.68 263.84L200.16 263.84V271.36H207.68L207.68 263.84Z" fill="black"/>
<path d="M222.72 263.84H215.2L215.2 271.36H222.72V263.84Z" fill="black"/>
<path d="M230.24 263.84L222.72 263.84V271.36H230.24V263.84Z" fill="black"/>
<path d="M237.76 263.84L230.24 263.84V271.36H237.76L237.76 263.84Z" fill="black"/>
<path d="M245.28 263.84H237.76L237.76 271.36H245.28L245.28 263.84Z" fill="black"/>
<path d="M260.32 263.84H252.8V271.36H260.32V263.84Z" fill="black"/>
<path d="M267.84 263.84H260.32V271.36H267.84L267.84 263.84Z" fill="black"/>
<path d="M297.92 263.84H290.4L290.4 271.36H297.92V263.84Z" fill="black"/>
<path d="M312.96 263.84H305.44L305.44 271.36H312.96L312.96 263.84Z" fill="black"/>
<path d="M320.48 263.84H312.96L312.96 271.36H320.48L320.48 263.84Z" fill="black"/>
<path d="M207.68 271.36H200.16V278.88H207.68V271.36Z" fill="black"/>
<path d="M215.2 271.36H207.68V278.88H215.2L215.2 271.36Z" fill="black"/>
<path d="M230.24 271.36H222.72L222.72 278.88H230.24V271.36Z" fill="black"/>
<path d="M245.28 271.36H237.76L237.76 278.88H245.28L245.28 271.36Z" fill="black"/>
<path d="M252.8 271.36H245.28L245.28 278.88H252.8L252.8 271.36Z" fill="black"/>
<path d="M267.84 271.36H260.32L260.32 278.88H267.84V271.36Z" fill="black"/>
<path d="M282.88 271.36H275.36V278.88H282.88V271.36Z" fill="black"/>
<path d="M297.92 271.36H290.4V278.88H297.92V271.36Z" fill="black"/>
<path d="M328 271.36L320.48 271.36L320.48 278.88H328V271.36Z" fill="black"/>
<path d="M207.68 278.88H200.16V286.4H207.68V278.88Z" fill="black"/>
<path d="M215.2 278.88H207.68V286.4L215.2 286.4L215.2 278.88Z" fill="black"/>
<path d="M222.72 278.88H215.2L215.2 286.4H222.72L222.72 278.88Z" fill="black"/>
<path d="M237.76 278.88H230.24L230.24 286.4H237.76L237.76 278.88Z" fill="black"/>
<path d="M245.28 278.88H237.76L237.76 286.4H245.28L245.28 278.88Z" fill="black"/>
<path d="M260.32 278.88H252.8L252.8 286.4H260.32L260.32 278.88Z" fill="black"/>
<path d="M267.84 278.88H260.32L260.32 286.4H267.84L267.84 278.88Z" fill="black"/>
<path d="M297.92 278.88H290.4V286.4H297.92V278.88Z" fill="black"/>
<path d="M320.48 278.88L312.96 278.88V286.4H320.48L320.48 278.88Z" fill="black"/>
<path d="M207.68 286.4H200.16L200.16 293.92H207.68L207.68 286.4Z" fill="black"/>
<path d="M237.76 286.4H230.24L230.24 293.92H237.76L237.76 286.4Z" fill="black"/>
<path d="M252.8 286.4H245.28L245.28 293.92H252.8L252.8 286.4Z" fill="black"/>
<path d="M260.32 286.4H252.8L252.8 293.92H260.32L260.32 286.4Z" fill="black"/>
<path d="M267.84 286.4H260.32L260.32 293.92H267.84L267.84 286.4Z" fill="black"/>
<path d="M275.36 286.4L267.84 286.4L267.84 293.92H275.36V286.4Z" fill="black"/>
<path d="M282.88 286.4H275.36V293.92H282.88V286.4Z" fill="black"/>
<path d="M290.4 286.4L282.88 286.4V293.92H290.4L290.4 286.4Z" fill="black"/>
<path d="M297.92 286.4H290.4L290.4 293.92H297.92V286.4Z" fill="black"/>
<path d="M320.48 286.4H312.96L312.96 293.92H320.48L320.48 286.4Z" fill="black"/>
<path d="M328 286.4L320.48 286.4L320.48 293.92H328V286.4Z" fill="black"/>
<path d="M207.68 293.92H200.16L200.16 301.44H207.68L207.68 293.92Z" fill="black"/>
<path d="M222.72 293.92H215.2V301.44H222.72V293.92Z" fill="black"/>
<path d="M245.28 293.92H237.76L237.76 301.44H245.28L245.28 293.92Z" fill="black"/>
<path d="M252.8 293.92H245.28L245.28 301.44H252.8L252.8 293.92Z" fill="black"/>
<path d="M260.32 293.92H252.8L252.8 301.44H260.32L260.32 293.92Z" fill="black"/>
<path d="M275.36 293.92H267.84L267.84 301.44H275.36L275.36 293.92Z" fill="black"/>
<path d="M282.88 293.92H275.36L275.36 301.44H282.88L282.88 293.92Z" fill="black"/>
<path d="M320.48 293.92H312.96L312.96 301.44H320.48L320.48 293.92Z" fill="black"/>
<path d="M328 293.92H320.48L320.48 301.44H328L328 293.92Z" fill="black"/>
<path d="M237.76 301.44L230.24 301.44V308.96H237.76L237.76 301.44Z" fill="black"/>
<path d="M245.28 301.44H237.76L237.76 308.96H245.28L245.28 301.44Z" fill="black"/>
<path d="M267.84 301.44H260.32L260.32 308.96H267.84L267.84 301.44Z" fill="black"/>
<path d="M275.36 301.44H267.84L267.84 308.96H275.36L275.36 301.44Z" fill="black"/>
<path d="M297.92 301.44H290.4V308.96H297.92V301.44Z" fill="black"/>
<path d="M305.44 301.44H297.92V308.96H305.44V301.44Z" fill="black"/>
<path d="M312.96 301.44L305.44 301.44V308.96H312.96L312.96 301.44Z" fill="black"/>
<path d="M320.48 301.44H312.96L312.96 308.96H320.48L320.48 301.44Z" fill="black"/>
<path d="M328 301.44H320.48L320.48 308.96H328L328 301.44Z" fill="black"/>
<path d="M215.2 308.96H207.68V316.48H215.2V308.96Z" fill="black"/>
<path d="M222.72 308.96H215.2V316.48H222.72V308.96Z" fill="black"/>
<path d="M252.8 308.96L245.28 308.96L245.28 316.48H252.8V308.96Z" fill="black"/>
<path d="M282.88 308.96L275.36 308.96L275.36 316.48H282.88V308.96Z" fill="black"/>
<path d="M290.4 308.96L282.88 308.96V316.48H290.4L290.4 308.96Z" fill="black"/>
<path d="M297.92 308.96H290.4L290.4 316.48H297.92V308.96Z" fill="black"/>
<path d="M312.96 308.96H305.44L305.44 316.48H312.96V308.96Z" fill="black"/>
<path d="M320.48 308.96H312.96V316.48H320.48V308.96Z" fill="black"/>
<path d="M328 308.96H320.48V316.48H328V308.96Z" fill="black"/>
<path d="M207.68 316.48L200.16 316.48V324H207.68L207.68 316.48Z" fill="black"/>
<path d="M215.2 316.48H207.68L207.68 324H215.2L215.2 316.48Z" fill="black"/>
<path d="M237.76 316.48H230.24V324H237.76V316.48Z" fill="black"/>
<path d="M245.28 316.48L237.76 316.48V324H245.28L245.28 316.48Z" fill="black"/>
<path d="M252.8 316.48H245.28L245.28 324H252.8L252.8 316.48Z" fill="black"/>
<path d="M260.32 316.48L252.8 316.48L252.8 324H260.32V316.48Z" fill="black"/>
<path d="M267.84 316.48H260.32V324H267.84V316.48Z" fill="black"/>
<path d="M282.88 316.48H275.36L275.36 324H282.88L282.88 316.48Z" fill="black"/>
<path d="M305.44 316.48H297.92L297.92 324H305.44L305.44 316.48Z" fill="black"/>
<path d="M328 316.48H320.48L320.48 324H328L328 316.48Z" fill="black"/>
<path d="M140 136V188.64H192.64V136H140ZM184.744 180.744H147.896V143.896H184.744V180.744Z" fill="black"/>
<path d="M275.36 136V188.64H328V136H275.36ZM320.104 180.744H283.256V143.896H320.104V180.744Z" fill="black"/>
<path d="M140 271.36V324H192.64V271.36H140ZM184.744 316.104H147.896V279.256H184.744V316.104Z" fill="black"/>
<path d="M177.6 151.04H155.04V173.6H177.6V151.04Z" fill="black"/>
<path d="M312.96 151.04H290.4V173.6H312.96V151.04Z" fill="black"/>
<path d="M177.6 286.4H155.04V308.96H177.6V286.4Z" fill="black"/>
<path d="M165.447 390.03C165.018 390.03 164.783 389.938 164.744 389.756L161.775 378.35C161.769 378.317 161.759 378.275 161.746 378.223C161.733 378.171 161.727 378.132 161.727 378.106C161.727 378.015 161.788 377.943 161.912 377.891C162.036 377.832 162.225 377.803 162.479 377.803H162.645C162.833 377.803 162.99 377.826 163.113 377.871C163.237 377.917 163.312 377.989 163.338 378.086L165.545 386.631C165.584 386.8 165.669 387.233 165.799 387.93C165.831 388.132 165.851 388.239 165.857 388.252C166.001 387.653 166.141 387.097 166.277 386.582L168.377 378.106C168.423 377.904 168.647 377.803 169.051 377.803H169.324C169.734 377.803 169.962 377.904 170.008 378.106L172.156 386.651C172.221 386.905 172.283 387.207 172.342 387.559C172.407 387.91 172.446 388.142 172.459 388.252C172.596 387.692 172.736 387.142 172.879 386.602L174.979 378.086C175.024 377.897 175.252 377.803 175.662 377.803H175.77C176.264 377.803 176.512 377.904 176.512 378.106C176.512 378.151 176.495 378.233 176.463 378.35L173.465 389.756C173.413 389.938 173.178 390.03 172.762 390.03H172.059C171.635 390.03 171.404 389.938 171.365 389.756L169.461 382.686L169.109 380.43L168.738 382.686L166.844 389.756C166.805 389.938 166.577 390.03 166.16 390.03H165.447ZM181.139 390.098C179.7 390.098 178.629 389.724 177.926 388.975C177.229 388.22 176.881 387.067 176.881 385.518C176.881 383.981 177.223 382.816 177.906 382.022C178.59 381.221 179.596 380.821 180.924 380.821C182.109 380.821 183.001 381.205 183.6 381.973C184.205 382.741 184.508 383.867 184.508 385.352C184.508 385.417 184.472 385.508 184.4 385.625C184.335 385.736 184.254 385.837 184.156 385.928C184.065 386.013 183.987 386.055 183.922 386.055H178.443C178.515 387.025 178.762 387.735 179.186 388.184C179.615 388.627 180.26 388.848 181.119 388.848C181.601 388.848 182.014 388.789 182.359 388.672C182.711 388.555 183.049 388.412 183.375 388.242C183.408 388.229 183.456 388.207 183.521 388.174C183.587 388.142 183.632 388.125 183.658 388.125C183.73 388.125 183.811 388.184 183.902 388.301C184 388.412 184.081 388.539 184.146 388.682C184.218 388.819 184.254 388.92 184.254 388.985C184.254 389.128 184.111 389.287 183.824 389.463C183.538 389.639 183.154 389.789 182.672 389.912C182.197 390.036 181.686 390.098 181.139 390.098ZM182.955 384.805C182.955 382.982 182.262 382.071 180.875 382.071C179.384 382.071 178.574 382.982 178.443 384.805H182.955ZM192.297 390.098C191.411 390.098 190.695 389.88 190.148 389.444C189.602 389.007 189.328 388.36 189.328 387.5C189.328 386.595 189.605 385.915 190.158 385.459C190.712 384.997 191.385 384.701 192.18 384.571C192.98 384.434 193.951 384.356 195.09 384.336V383.516C195.09 383.08 194.94 382.731 194.641 382.471C194.348 382.204 193.863 382.071 193.186 382.071C192.671 382.071 192.219 382.132 191.828 382.256C191.444 382.373 191.083 382.517 190.744 382.686C190.601 382.757 190.513 382.793 190.48 382.793C190.402 382.793 190.314 382.738 190.217 382.627C190.126 382.51 190.044 382.38 189.973 382.237C189.908 382.093 189.875 381.989 189.875 381.924C189.875 381.774 190.028 381.612 190.334 381.436C190.646 381.26 191.053 381.114 191.555 380.996C192.056 380.879 192.58 380.821 193.127 380.821C194.214 380.821 195.057 381.058 195.656 381.533C196.255 382.009 196.555 382.676 196.555 383.535V387.432C196.555 388.187 196.587 388.734 196.652 389.073C196.724 389.405 196.76 389.587 196.76 389.619C196.76 389.763 196.649 389.867 196.428 389.932C196.213 389.99 196.011 390.02 195.822 390.02C195.666 390.02 195.549 389.932 195.471 389.756C195.399 389.58 195.327 389.326 195.256 388.994L195.217 388.799C194.859 389.196 194.436 389.512 193.947 389.746C193.465 389.981 192.915 390.098 192.297 390.098ZM192.375 388.838C192.948 388.838 193.436 388.734 193.84 388.526C194.243 388.317 194.66 388.021 195.09 387.637V385.586C194.23 385.593 193.524 385.628 192.971 385.694C192.417 385.759 191.932 385.925 191.516 386.192C191.099 386.452 190.891 386.859 190.891 387.412C190.891 387.875 191.014 388.229 191.262 388.477C191.516 388.718 191.887 388.838 192.375 388.838ZM199.717 390.03C199.469 390.03 199.29 390 199.18 389.942C199.069 389.877 199.014 389.779 199.014 389.649V383.555C199.014 382.8 198.978 382.256 198.906 381.924C198.835 381.586 198.799 381.4 198.799 381.367C198.799 381.224 198.906 381.123 199.121 381.065C199.342 381 199.551 380.967 199.746 380.967C199.902 380.967 200.02 381.052 200.098 381.221C200.176 381.384 200.244 381.615 200.303 381.914L200.352 382.119C200.97 381.253 201.641 380.821 202.363 380.821C202.695 380.821 202.946 380.882 203.115 381.006C203.285 381.123 203.369 381.283 203.369 381.485C203.369 381.68 203.333 381.888 203.262 382.11C203.197 382.324 203.118 382.432 203.027 382.432C202.982 382.432 202.9 382.412 202.783 382.373C202.679 382.328 202.575 382.295 202.471 382.276C202.367 382.25 202.233 382.237 202.07 382.237C201.803 382.237 201.549 382.315 201.309 382.471C201.074 382.627 200.876 382.8 200.713 382.989C200.55 383.177 200.469 383.281 200.469 383.301V389.649C200.469 389.779 200.413 389.877 200.303 389.942C200.192 390 200.02 390.03 199.785 390.03H199.717ZM208.514 390.098C207.075 390.098 206.004 389.724 205.301 388.975C204.604 388.22 204.256 387.067 204.256 385.518C204.256 383.981 204.598 382.816 205.281 382.022C205.965 381.221 206.971 380.821 208.299 380.821C209.484 380.821 210.376 381.205 210.975 381.973C211.58 382.741 211.883 383.867 211.883 385.352C211.883 385.417 211.847 385.508 211.775 385.625C211.71 385.736 211.629 385.837 211.531 385.928C211.44 386.013 211.362 386.055 211.297 386.055H205.818C205.89 387.025 206.137 387.735 206.561 388.184C206.99 388.627 207.635 388.848 208.494 388.848C208.976 388.848 209.389 388.789 209.734 388.672C210.086 388.555 210.424 388.412 210.75 388.242C210.783 388.229 210.831 388.207 210.896 388.174C210.962 388.142 211.007 388.125 211.033 388.125C211.105 388.125 211.186 388.184 211.277 388.301C211.375 388.412 211.456 388.539 211.521 388.682C211.593 388.819 211.629 388.92 211.629 388.985C211.629 389.128 211.486 389.287 211.199 389.463C210.913 389.639 210.529 389.789 210.047 389.912C209.572 390.036 209.061 390.098 208.514 390.098ZM210.33 384.805C210.33 382.982 209.637 382.071 208.25 382.071C206.759 382.071 205.949 382.982 205.818 384.805H210.33ZM219.672 390.098C218.786 390.098 218.07 389.88 217.523 389.444C216.977 389.007 216.703 388.36 216.703 387.5C216.703 386.595 216.98 385.915 217.533 385.459C218.087 384.997 218.76 384.701 219.555 384.571C220.355 384.434 221.326 384.356 222.465 384.336V383.516C222.465 383.08 222.315 382.731 222.016 382.471C221.723 382.204 221.238 382.071 220.561 382.071C220.046 382.071 219.594 382.132 219.203 382.256C218.819 382.373 218.458 382.517 218.119 382.686C217.976 382.757 217.888 382.793 217.855 382.793C217.777 382.793 217.689 382.738 217.592 382.627C217.501 382.51 217.419 382.38 217.348 382.237C217.283 382.093 217.25 381.989 217.25 381.924C217.25 381.774 217.403 381.612 217.709 381.436C218.021 381.26 218.428 381.114 218.93 380.996C219.431 380.879 219.955 380.821 220.502 380.821C221.589 380.821 222.432 381.058 223.031 381.533C223.63 382.009 223.93 382.676 223.93 383.535V387.432C223.93 388.187 223.962 388.734 224.027 389.073C224.099 389.405 224.135 389.587 224.135 389.619C224.135 389.763 224.024 389.867 223.803 389.932C223.588 389.99 223.386 390.02 223.197 390.02C223.041 390.02 222.924 389.932 222.846 389.756C222.774 389.58 222.702 389.326 222.631 388.994L222.592 388.799C222.234 389.196 221.811 389.512 221.322 389.746C220.84 389.981 220.29 390.098 219.672 390.098ZM219.75 388.838C220.323 388.838 220.811 388.734 221.215 388.526C221.618 388.317 222.035 388.021 222.465 387.637V385.586C221.605 385.593 220.899 385.628 220.346 385.694C219.792 385.759 219.307 385.925 218.891 386.192C218.474 386.452 218.266 386.859 218.266 387.412C218.266 387.875 218.389 388.229 218.637 388.477C218.891 388.718 219.262 388.838 219.75 388.838ZM228.488 390.098C227.909 390.098 227.391 389.922 226.936 389.571C226.48 389.219 226.252 388.597 226.252 387.705V377.324C226.252 377.071 226.483 376.944 226.945 376.944H227.023C227.479 376.944 227.707 377.071 227.707 377.324V387.569C227.707 388.044 227.792 388.376 227.961 388.565C228.13 388.753 228.358 388.848 228.645 388.848C228.859 388.848 229.029 388.835 229.152 388.809C229.276 388.783 229.357 388.77 229.396 388.77C229.501 388.77 229.585 388.874 229.65 389.082C229.722 389.291 229.758 389.457 229.758 389.58C229.758 389.925 229.335 390.098 228.488 390.098ZM233.096 390.03C232.673 390.03 232.441 389.938 232.402 389.756L230.117 381.524C230.052 381.341 230.02 381.227 230.02 381.182C230.02 380.987 230.286 380.889 230.82 380.889C231.237 380.889 231.468 380.98 231.514 381.162L232.979 386.719C233.005 386.81 233.089 387.181 233.232 387.832C233.265 388.008 233.327 388.298 233.418 388.701C233.548 387.901 233.691 387.233 233.848 386.699L235.283 381.182C235.329 380.987 235.557 380.889 235.967 380.889H236.084C236.481 380.889 236.709 380.987 236.768 381.182L238.213 386.699C238.369 387.272 238.499 387.836 238.604 388.389C238.61 388.428 238.626 388.526 238.652 388.682C238.835 387.718 238.968 387.071 239.053 386.739L240.518 381.162C240.563 380.98 240.798 380.889 241.221 380.889C241.683 380.889 241.914 380.987 241.914 381.182C241.914 381.253 241.898 381.332 241.865 381.416L239.531 389.756C239.492 389.938 239.264 390.03 238.848 390.03H238.32C237.91 390.03 237.686 389.938 237.646 389.756L236.25 384.248C236.165 383.89 236.081 383.441 235.996 382.901C235.911 383.467 235.824 383.913 235.732 384.239L234.316 389.756C234.277 389.938 234.043 390.03 233.613 390.03H233.096ZM245.789 390.098C244.904 390.098 244.188 389.88 243.641 389.444C243.094 389.007 242.82 388.36 242.82 387.5C242.82 386.595 243.097 385.915 243.65 385.459C244.204 384.997 244.878 384.701 245.672 384.571C246.473 384.434 247.443 384.356 248.582 384.336V383.516C248.582 383.08 248.432 382.731 248.133 382.471C247.84 382.204 247.355 382.071 246.678 382.071C246.163 382.071 245.711 382.132 245.32 382.256C244.936 382.373 244.575 382.517 244.236 382.686C244.093 382.757 244.005 382.793 243.973 382.793C243.895 382.793 243.807 382.738 243.709 382.627C243.618 382.51 243.536 382.38 243.465 382.237C243.4 382.093 243.367 381.989 243.367 381.924C243.367 381.774 243.52 381.612 243.826 381.436C244.139 381.26 244.546 381.114 245.047 380.996C245.548 380.879 246.072 380.821 246.619 380.821C247.706 380.821 248.549 381.058 249.148 381.533C249.747 382.009 250.047 382.676 250.047 383.535V387.432C250.047 388.187 250.079 388.734 250.145 389.073C250.216 389.405 250.252 389.587 250.252 389.619C250.252 389.763 250.141 389.867 249.92 389.932C249.705 389.99 249.503 390.02 249.314 390.02C249.158 390.02 249.041 389.932 248.963 389.756C248.891 389.58 248.82 389.326 248.748 388.994L248.709 388.799C248.351 389.196 247.928 389.512 247.439 389.746C246.958 389.981 246.408 390.098 245.789 390.098ZM245.867 388.838C246.44 388.838 246.928 388.734 247.332 388.526C247.736 388.317 248.152 388.021 248.582 387.637V385.586C247.723 385.593 247.016 385.628 246.463 385.694C245.91 385.759 245.424 385.925 245.008 386.192C244.591 386.452 244.383 386.859 244.383 387.412C244.383 387.875 244.507 388.229 244.754 388.477C245.008 388.718 245.379 388.838 245.867 388.838ZM253.375 393.614C252.997 393.614 252.809 393.519 252.809 393.33C252.809 393.285 252.835 393.19 252.887 393.047L254.342 389.512L251.305 381.406C251.298 381.38 251.288 381.345 251.275 381.299C251.262 381.247 251.256 381.208 251.256 381.182C251.256 381.091 251.318 381.019 251.441 380.967C251.565 380.915 251.754 380.889 252.008 380.889H252.145C252.535 380.889 252.766 380.98 252.838 381.162L254.605 385.869C254.762 386.28 254.947 386.862 255.162 387.617H255.191L255.396 386.973C255.429 386.875 255.484 386.709 255.562 386.475C255.641 386.234 255.712 386.032 255.777 385.869L257.506 381.162C257.564 380.98 257.802 380.889 258.219 380.889H258.277C258.733 380.889 258.961 380.987 258.961 381.182C258.961 381.227 258.945 381.306 258.912 381.416L254.459 393.252C254.355 393.493 254.081 393.614 253.639 393.614H253.375ZM262.172 390.166C261.684 390.166 261.228 390.104 260.805 389.981C260.382 389.857 260.043 389.707 259.789 389.531C259.542 389.349 259.418 389.19 259.418 389.053C259.418 388.988 259.451 388.884 259.516 388.74C259.587 388.597 259.669 388.47 259.76 388.36C259.857 388.242 259.945 388.184 260.023 388.184C260.043 388.184 260.102 388.216 260.199 388.281C260.46 388.451 260.733 388.594 261.02 388.711C261.312 388.828 261.661 388.887 262.064 388.887C263.197 388.887 263.764 388.418 263.764 387.481C263.764 387.214 263.708 386.989 263.598 386.807C263.493 386.625 263.314 386.465 263.061 386.328C262.813 386.185 262.471 386.048 262.035 385.918C261.41 385.736 260.922 385.528 260.57 385.293C260.225 385.059 259.981 384.785 259.838 384.473C259.695 384.154 259.623 383.77 259.623 383.321C259.623 382.839 259.743 382.406 259.984 382.022C260.232 381.638 260.574 381.338 261.01 381.123C261.452 380.908 261.951 380.801 262.504 380.801C262.888 380.801 263.256 380.837 263.607 380.908C263.965 380.98 264.252 381.074 264.467 381.192C264.688 381.302 264.799 381.42 264.799 381.543C264.799 381.634 264.766 381.758 264.701 381.914C264.643 382.064 264.568 382.198 264.477 382.315C264.385 382.425 264.304 382.481 264.232 382.481C264.219 382.481 264.138 382.442 263.988 382.364C263.839 382.279 263.646 382.204 263.412 382.139C263.184 382.067 262.93 382.031 262.65 382.031C262.208 382.031 261.84 382.132 261.547 382.334C261.26 382.53 261.117 382.793 261.117 383.125C261.117 383.516 261.221 383.828 261.43 384.063C261.638 384.297 261.983 384.489 262.465 384.639C263.207 384.867 263.773 385.095 264.164 385.323C264.555 385.55 264.831 385.83 264.994 386.162C265.163 386.488 265.248 386.918 265.248 387.451C265.248 387.959 265.111 388.421 264.838 388.838C264.564 389.248 264.193 389.574 263.725 389.815C263.256 390.049 262.738 390.166 262.172 390.166ZM274.131 390.098C272.822 390.098 271.823 389.707 271.133 388.926C270.449 388.138 270.107 386.996 270.107 385.498C270.107 384.001 270.456 382.849 271.152 382.041C271.849 381.227 272.842 380.821 274.131 380.821C275.407 380.821 276.383 381.224 277.061 382.031C277.738 382.832 278.076 383.988 278.076 385.498C278.076 387.002 277.741 388.145 277.07 388.926C276.406 389.707 275.426 390.098 274.131 390.098ZM274.082 388.848C274.928 388.848 275.553 388.574 275.957 388.028C276.361 387.474 276.562 386.621 276.562 385.469C276.562 384.31 276.361 383.454 275.957 382.901C275.553 382.347 274.928 382.071 274.082 382.071C273.242 382.071 272.624 382.347 272.227 382.901C271.829 383.448 271.631 384.304 271.631 385.469C271.631 386.628 271.826 387.481 272.217 388.028C272.614 388.574 273.236 388.848 274.082 388.848ZM280.73 393.614C280.262 393.614 280.027 393.487 280.027 393.233V383.555C280.027 382.8 279.992 382.256 279.92 381.924C279.848 381.586 279.812 381.4 279.812 381.367C279.812 381.224 279.92 381.123 280.135 381.065C280.356 381 280.564 380.967 280.76 380.967C280.923 380.967 281.043 381.055 281.121 381.231C281.199 381.406 281.255 381.586 281.287 381.768C281.326 381.95 281.352 382.067 281.365 382.119C282.192 381.253 283.113 380.821 284.129 380.821C284.826 380.821 285.428 381.019 285.936 381.416C286.443 381.813 286.831 382.364 287.098 383.067C287.365 383.77 287.498 384.571 287.498 385.469C287.498 386.446 287.348 387.282 287.049 387.979C286.756 388.675 286.342 389.203 285.809 389.561C285.275 389.919 284.66 390.098 283.963 390.098C283.462 390.098 283.016 390.023 282.625 389.873C282.241 389.724 281.86 389.505 281.482 389.219V393.233C281.482 393.487 281.255 393.614 280.799 393.614H280.73ZM283.631 388.819C284.406 388.799 284.988 388.516 285.379 387.969C285.77 387.422 285.965 386.628 285.965 385.586C285.965 384.466 285.779 383.604 285.408 382.998C285.044 382.386 284.516 382.08 283.826 382.08C283.442 382.08 283.042 382.184 282.625 382.393C282.215 382.601 281.834 382.897 281.482 383.281V388.037C282.12 388.558 282.837 388.819 283.631 388.819ZM293.209 390.098C291.77 390.098 290.699 389.724 289.996 388.975C289.299 388.22 288.951 387.067 288.951 385.518C288.951 383.981 289.293 382.816 289.977 382.022C290.66 381.221 291.666 380.821 292.994 380.821C294.179 380.821 295.071 381.205 295.67 381.973C296.275 382.741 296.578 383.867 296.578 385.352C296.578 385.417 296.542 385.508 296.471 385.625C296.406 385.736 296.324 385.837 296.227 385.928C296.135 386.013 296.057 386.055 295.992 386.055H290.514C290.585 387.025 290.833 387.735 291.256 388.184C291.686 388.627 292.33 388.848 293.189 388.848C293.671 388.848 294.085 388.789 294.43 388.672C294.781 388.555 295.12 388.412 295.445 388.242C295.478 388.229 295.527 388.207 295.592 388.174C295.657 388.142 295.702 388.125 295.729 388.125C295.8 388.125 295.882 388.184 295.973 388.301C296.07 388.412 296.152 388.539 296.217 388.682C296.288 388.819 296.324 388.92 296.324 388.985C296.324 389.128 296.181 389.287 295.895 389.463C295.608 389.639 295.224 389.789 294.742 389.912C294.267 390.036 293.756 390.098 293.209 390.098ZM295.025 384.805C295.025 382.982 294.332 382.071 292.945 382.071C291.454 382.071 290.644 382.982 290.514 384.805H295.025ZM299.066 390.03C298.819 390.03 298.64 390 298.529 389.942C298.419 389.877 298.363 389.779 298.363 389.649V383.555C298.363 382.8 298.327 382.256 298.256 381.924C298.184 381.586 298.148 381.4 298.148 381.367C298.148 381.224 298.256 381.123 298.471 381.065C298.692 381 298.9 380.967 299.096 380.967C299.258 380.967 299.379 381.055 299.457 381.231C299.535 381.406 299.59 381.586 299.623 381.768C299.662 381.95 299.688 382.067 299.701 382.119C300.066 381.709 300.486 381.39 300.961 381.162C301.443 380.934 301.928 380.821 302.416 380.821C303.301 380.821 303.992 381.071 304.486 381.573C304.988 382.067 305.238 382.751 305.238 383.623V389.649C305.238 389.779 305.183 389.877 305.072 389.942C304.962 390 304.786 390.03 304.545 390.03H304.467C304.232 390.03 304.06 390 303.949 389.942C303.839 389.877 303.783 389.779 303.783 389.649V383.77C303.783 383.236 303.627 382.823 303.314 382.53C303.008 382.23 302.576 382.08 302.016 382.08C301.625 382.08 301.231 382.191 300.834 382.412C300.443 382.627 300.105 382.923 299.818 383.301V389.649C299.818 389.779 299.763 389.877 299.652 389.942C299.542 390 299.369 390.03 299.135 390.03H299.066ZM135.955 414.03C135.714 414.03 135.538 414 135.428 413.942C135.317 413.877 135.262 413.779 135.262 413.649V406.168H134.568C134.334 406.168 134.217 405.996 134.217 405.651V405.436C134.217 405.091 134.334 404.918 134.568 404.918H135.262V403.268C135.262 402.356 135.486 401.731 135.936 401.393C136.391 401.048 136.912 400.875 137.498 400.875C138.344 400.875 138.768 401.051 138.768 401.403C138.768 401.461 138.751 401.559 138.719 401.696C138.693 401.826 138.65 401.943 138.592 402.047C138.54 402.151 138.478 402.203 138.406 402.203C138.367 402.203 138.286 402.19 138.162 402.164C138.038 402.138 137.869 402.125 137.654 402.125C137.459 402.125 137.293 402.155 137.156 402.213C137.026 402.272 136.919 402.395 136.834 402.584C136.756 402.773 136.717 403.046 136.717 403.405V404.918H138.23C138.354 404.918 138.442 404.961 138.494 405.045C138.553 405.123 138.582 405.253 138.582 405.436V405.651C138.582 405.833 138.553 405.966 138.494 406.051C138.442 406.129 138.354 406.168 138.23 406.168H136.717V413.649C136.717 413.779 136.661 413.877 136.551 413.942C136.44 414 136.268 414.03 136.033 414.03H135.955ZM143.512 414.098C142.203 414.098 141.204 413.707 140.514 412.926C139.83 412.138 139.488 410.996 139.488 409.498C139.488 408.001 139.837 406.849 140.533 406.041C141.23 405.227 142.223 404.821 143.512 404.821C144.788 404.821 145.764 405.224 146.441 406.031C147.118 406.832 147.457 407.988 147.457 409.498C147.457 411.002 147.122 412.145 146.451 412.926C145.787 413.707 144.807 414.098 143.512 414.098ZM143.463 412.848C144.309 412.848 144.934 412.574 145.338 412.028C145.742 411.474 145.943 410.621 145.943 409.469C145.943 408.31 145.742 407.454 145.338 406.901C144.934 406.347 144.309 406.071 143.463 406.071C142.623 406.071 142.005 406.347 141.607 406.901C141.21 407.448 141.012 408.304 141.012 409.469C141.012 410.628 141.207 411.481 141.598 412.028C141.995 412.574 142.617 412.848 143.463 412.848ZM150.18 414.03C149.932 414.03 149.753 414 149.643 413.942C149.532 413.877 149.477 413.779 149.477 413.649V407.555C149.477 406.8 149.441 406.256 149.369 405.924C149.298 405.586 149.262 405.4 149.262 405.367C149.262 405.224 149.369 405.123 149.584 405.065C149.805 405 150.014 404.967 150.209 404.967C150.365 404.967 150.482 405.052 150.561 405.221C150.639 405.384 150.707 405.615 150.766 405.914L150.814 406.119C151.433 405.253 152.104 404.821 152.826 404.821C153.158 404.821 153.409 404.882 153.578 405.006C153.747 405.123 153.832 405.283 153.832 405.485C153.832 405.68 153.796 405.888 153.725 406.11C153.66 406.324 153.581 406.432 153.49 406.432C153.445 406.432 153.363 406.412 153.246 406.373C153.142 406.328 153.038 406.295 152.934 406.276C152.829 406.25 152.696 406.237 152.533 406.237C152.266 406.237 152.012 406.315 151.771 406.471C151.537 406.627 151.339 406.8 151.176 406.989C151.013 407.177 150.932 407.281 150.932 407.301V413.649C150.932 413.779 150.876 413.877 150.766 413.942C150.655 414 150.482 414.03 150.248 414.03H150.18ZM161.26 414.098C160.374 414.098 159.658 413.88 159.111 413.444C158.564 413.007 158.291 412.36 158.291 411.5C158.291 410.595 158.568 409.915 159.121 409.459C159.674 408.997 160.348 408.701 161.143 408.571C161.943 408.434 162.913 408.356 164.053 408.336V407.516C164.053 407.08 163.903 406.731 163.604 406.471C163.311 406.204 162.826 406.071 162.148 406.071C161.634 406.071 161.182 406.132 160.791 406.256C160.407 406.373 160.046 406.517 159.707 406.686C159.564 406.757 159.476 406.793 159.443 406.793C159.365 406.793 159.277 406.738 159.18 406.627C159.089 406.51 159.007 406.38 158.936 406.237C158.87 406.093 158.838 405.989 158.838 405.924C158.838 405.774 158.991 405.612 159.297 405.436C159.609 405.26 160.016 405.114 160.518 404.996C161.019 404.879 161.543 404.821 162.09 404.821C163.177 404.821 164.02 405.058 164.619 405.533C165.218 406.009 165.518 406.676 165.518 407.535V411.432C165.518 412.187 165.55 412.734 165.615 413.073C165.687 413.405 165.723 413.587 165.723 413.619C165.723 413.763 165.612 413.867 165.391 413.932C165.176 413.99 164.974 414.02 164.785 414.02C164.629 414.02 164.512 413.932 164.434 413.756C164.362 413.58 164.29 413.326 164.219 412.994L164.18 412.799C163.822 413.196 163.398 413.512 162.91 413.746C162.428 413.981 161.878 414.098 161.26 414.098ZM161.338 412.838C161.911 412.838 162.399 412.734 162.803 412.526C163.206 412.317 163.623 412.021 164.053 411.637V409.586C163.193 409.593 162.487 409.628 161.934 409.694C161.38 409.759 160.895 409.925 160.479 410.192C160.062 410.452 159.854 410.859 159.854 411.412C159.854 411.875 159.977 412.229 160.225 412.477C160.479 412.718 160.85 412.838 161.338 412.838ZM168.611 414.03C168.364 414.03 168.185 414 168.074 413.942C167.964 413.877 167.908 413.779 167.908 413.649V407.555C167.908 406.8 167.872 406.256 167.801 405.924C167.729 405.586 167.693 405.4 167.693 405.367C167.693 405.224 167.801 405.123 168.016 405.065C168.237 405 168.445 404.967 168.641 404.967C168.803 404.967 168.924 405.055 169.002 405.231C169.08 405.406 169.135 405.586 169.168 405.768C169.207 405.95 169.233 406.067 169.246 406.119C169.611 405.709 170.031 405.39 170.506 405.162C170.988 404.934 171.473 404.821 171.961 404.821C172.846 404.821 173.536 405.071 174.031 405.573C174.533 406.067 174.783 406.751 174.783 407.623V413.649C174.783 413.779 174.728 413.877 174.617 413.942C174.507 414 174.331 414.03 174.09 414.03H174.012C173.777 414.03 173.605 414 173.494 413.942C173.383 413.877 173.328 413.779 173.328 413.649V407.77C173.328 407.236 173.172 406.823 172.859 406.53C172.553 406.23 172.12 406.08 171.561 406.08C171.17 406.08 170.776 406.191 170.379 406.412C169.988 406.627 169.65 406.923 169.363 407.301V413.649C169.363 413.779 169.308 413.877 169.197 413.942C169.087 414 168.914 414.03 168.68 414.03H168.611ZM178.014 417.614C177.636 417.614 177.447 417.519 177.447 417.33C177.447 417.285 177.473 417.19 177.525 417.047L178.98 413.512L175.943 405.406C175.937 405.38 175.927 405.345 175.914 405.299C175.901 405.247 175.895 405.208 175.895 405.182C175.895 405.091 175.956 405.019 176.08 404.967C176.204 404.915 176.393 404.889 176.646 404.889H176.783C177.174 404.889 177.405 404.98 177.477 405.162L179.244 409.869C179.4 410.28 179.586 410.862 179.801 411.617H179.83L180.035 410.973C180.068 410.875 180.123 410.709 180.201 410.475C180.279 410.234 180.351 410.032 180.416 409.869L182.145 405.162C182.203 404.98 182.441 404.889 182.857 404.889H182.916C183.372 404.889 183.6 404.987 183.6 405.182C183.6 405.227 183.583 405.306 183.551 405.416L179.098 417.252C178.993 417.493 178.72 417.614 178.277 417.614H178.014ZM191.389 414.098C190.712 414.098 190.119 413.903 189.611 413.512C189.104 413.115 188.71 412.565 188.43 411.862C188.156 411.158 188.02 410.361 188.02 409.469C188.02 408.486 188.166 407.646 188.459 406.949C188.758 406.246 189.175 405.716 189.709 405.358C190.243 405 190.858 404.821 191.555 404.821C192.056 404.821 192.499 404.895 192.883 405.045C193.273 405.195 193.658 405.413 194.035 405.699V401.324C194.035 401.071 194.263 400.944 194.719 400.944H194.797C195.259 400.944 195.49 401.071 195.49 401.324V411.432C195.49 412.187 195.526 412.734 195.598 413.073C195.669 413.405 195.705 413.587 195.705 413.619C195.705 413.763 195.594 413.867 195.373 413.932C195.158 413.99 194.956 414.02 194.768 414.02C194.637 414.02 194.533 413.958 194.455 413.834C194.377 413.711 194.322 413.587 194.289 413.463C194.263 413.333 194.217 413.112 194.152 412.799C193.326 413.665 192.404 414.098 191.389 414.098ZM191.691 412.838C192.076 412.838 192.473 412.734 192.883 412.526C193.299 412.317 193.684 412.021 194.035 411.637V406.881C193.41 406.36 192.697 406.1 191.896 406.1C191.122 406.119 190.536 406.403 190.139 406.949C189.748 407.496 189.553 408.291 189.553 409.332C189.553 410.452 189.735 411.318 190.1 411.93C190.471 412.535 191.001 412.838 191.691 412.838ZM198.652 402.731C198.19 402.731 197.959 402.604 197.959 402.35V401.324C197.959 401.071 198.19 400.944 198.652 400.944H198.857C199.326 400.944 199.561 401.071 199.561 401.324V402.35C199.561 402.604 199.326 402.731 198.857 402.731H198.652ZM198.721 414.03C198.258 414.03 198.027 413.903 198.027 413.649V405.27C198.027 405.016 198.258 404.889 198.721 404.889H198.789C199.258 404.889 199.492 405.016 199.492 405.27V413.649C199.492 413.903 199.258 414.03 198.789 414.03H198.721ZM203.924 414.166C203.436 414.166 202.98 414.104 202.557 413.981C202.133 413.857 201.795 413.707 201.541 413.531C201.294 413.349 201.17 413.19 201.17 413.053C201.17 412.988 201.202 412.884 201.268 412.74C201.339 412.597 201.421 412.47 201.512 412.36C201.609 412.242 201.697 412.184 201.775 412.184C201.795 412.184 201.854 412.216 201.951 412.281C202.212 412.451 202.485 412.594 202.771 412.711C203.064 412.828 203.413 412.887 203.816 412.887C204.949 412.887 205.516 412.418 205.516 411.481C205.516 411.214 205.46 410.989 205.35 410.807C205.245 410.625 205.066 410.465 204.812 410.328C204.565 410.185 204.223 410.048 203.787 409.918C203.162 409.736 202.674 409.528 202.322 409.293C201.977 409.059 201.733 408.785 201.59 408.473C201.447 408.154 201.375 407.77 201.375 407.321C201.375 406.839 201.495 406.406 201.736 406.022C201.984 405.638 202.326 405.338 202.762 405.123C203.204 404.908 203.702 404.801 204.256 404.801C204.64 404.801 205.008 404.837 205.359 404.908C205.717 404.98 206.004 405.074 206.219 405.192C206.44 405.302 206.551 405.42 206.551 405.543C206.551 405.634 206.518 405.758 206.453 405.914C206.395 406.064 206.32 406.198 206.229 406.315C206.137 406.425 206.056 406.481 205.984 406.481C205.971 406.481 205.89 406.442 205.74 406.364C205.59 406.279 205.398 406.204 205.164 406.139C204.936 406.067 204.682 406.031 204.402 406.031C203.96 406.031 203.592 406.132 203.299 406.334C203.012 406.53 202.869 406.793 202.869 407.125C202.869 407.516 202.973 407.828 203.182 408.063C203.39 408.297 203.735 408.489 204.217 408.639C204.959 408.867 205.525 409.095 205.916 409.323C206.307 409.55 206.583 409.83 206.746 410.162C206.915 410.488 207 410.918 207 411.451C207 411.959 206.863 412.421 206.59 412.838C206.316 413.248 205.945 413.574 205.477 413.815C205.008 414.049 204.49 414.166 203.924 414.166ZM212.398 414.098C210.96 414.098 209.885 413.73 209.176 412.994C208.473 412.252 208.121 411.061 208.121 409.42C208.121 407.76 208.515 406.578 209.303 405.875C210.09 405.172 211.07 404.821 212.242 404.821C212.678 404.821 213.098 404.86 213.502 404.938C213.906 405.009 214.231 405.107 214.479 405.231C214.726 405.354 214.85 405.485 214.85 405.621C214.85 405.712 214.817 405.833 214.752 405.983C214.693 406.132 214.618 406.266 214.527 406.383C214.443 406.494 214.365 406.549 214.293 406.549C214.273 406.549 214.244 406.543 214.205 406.53C214.166 406.51 214.13 406.494 214.098 406.481C213.512 406.207 212.88 406.071 212.203 406.071C211.402 406.071 210.784 406.334 210.348 406.862C209.911 407.382 209.693 408.222 209.693 409.381C209.693 410.201 209.781 410.865 209.957 411.373C210.133 411.875 210.416 412.246 210.807 412.487C211.204 412.727 211.731 412.848 212.389 412.848C213.111 412.848 213.762 412.698 214.342 412.399C214.4 412.386 214.443 412.373 214.469 412.36C214.501 412.34 214.524 412.33 214.537 412.33C214.609 412.33 214.69 412.386 214.781 412.496C214.872 412.607 214.951 412.734 215.016 412.877C215.087 413.02 215.123 413.134 215.123 413.219C215.123 413.356 214.999 413.492 214.752 413.629C214.505 413.766 214.169 413.88 213.746 413.971C213.329 414.056 212.88 414.098 212.398 414.098ZM219.271 414.098C218.386 414.098 217.693 413.851 217.191 413.356C216.69 412.854 216.439 412.164 216.439 411.285V405.27C216.439 405.016 216.674 404.889 217.143 404.889H217.211C217.673 404.889 217.904 405.016 217.904 405.27V411.149C217.904 411.683 218.057 412.099 218.363 412.399C218.676 412.692 219.112 412.838 219.672 412.838C220.062 412.838 220.453 412.731 220.844 412.516C221.234 412.295 221.573 411.995 221.859 411.617V405.27C221.859 405.016 222.09 404.889 222.553 404.889H222.621C223.09 404.889 223.324 405.016 223.324 405.27V411.432C223.324 412.187 223.357 412.734 223.422 413.073C223.487 413.405 223.52 413.587 223.52 413.619C223.52 413.763 223.412 413.867 223.197 413.932C222.982 413.99 222.781 414.02 222.592 414.02C222.429 414.02 222.309 413.929 222.23 413.746C222.152 413.558 222.094 413.365 222.055 413.17C222.022 412.975 221.999 412.851 221.986 412.799C221.622 413.209 221.199 413.528 220.717 413.756C220.242 413.984 219.76 414.098 219.271 414.098ZM227.678 414.166C227.189 414.166 226.734 414.104 226.311 413.981C225.887 413.857 225.549 413.707 225.295 413.531C225.048 413.349 224.924 413.19 224.924 413.053C224.924 412.988 224.956 412.884 225.021 412.74C225.093 412.597 225.174 412.47 225.266 412.36C225.363 412.242 225.451 412.184 225.529 412.184C225.549 412.184 225.607 412.216 225.705 412.281C225.965 412.451 226.239 412.594 226.525 412.711C226.818 412.828 227.167 412.887 227.57 412.887C228.703 412.887 229.27 412.418 229.27 411.481C229.27 411.214 229.214 410.989 229.104 410.807C228.999 410.625 228.82 410.465 228.566 410.328C228.319 410.185 227.977 410.048 227.541 409.918C226.916 409.736 226.428 409.528 226.076 409.293C225.731 409.059 225.487 408.785 225.344 408.473C225.201 408.154 225.129 407.77 225.129 407.321C225.129 406.839 225.249 406.406 225.49 406.022C225.738 405.638 226.079 405.338 226.516 405.123C226.958 404.908 227.456 404.801 228.01 404.801C228.394 404.801 228.762 404.837 229.113 404.908C229.471 404.98 229.758 405.074 229.973 405.192C230.194 405.302 230.305 405.42 230.305 405.543C230.305 405.634 230.272 405.758 230.207 405.914C230.148 406.064 230.074 406.198 229.982 406.315C229.891 406.425 229.81 406.481 229.738 406.481C229.725 406.481 229.644 406.442 229.494 406.364C229.344 406.279 229.152 406.204 228.918 406.139C228.69 406.067 228.436 406.031 228.156 406.031C227.714 406.031 227.346 406.132 227.053 406.334C226.766 406.53 226.623 406.793 226.623 407.125C226.623 407.516 226.727 407.828 226.936 408.063C227.144 408.297 227.489 408.489 227.971 408.639C228.713 408.867 229.279 409.095 229.67 409.323C230.061 409.55 230.337 409.83 230.5 410.162C230.669 410.488 230.754 410.918 230.754 411.451C230.754 411.959 230.617 412.421 230.344 412.838C230.07 413.248 229.699 413.574 229.23 413.815C228.762 414.049 228.244 414.166 227.678 414.166ZM234.346 414.166C233.857 414.166 233.402 414.104 232.979 413.981C232.555 413.857 232.217 413.707 231.963 413.531C231.715 413.349 231.592 413.19 231.592 413.053C231.592 412.988 231.624 412.884 231.689 412.74C231.761 412.597 231.842 412.47 231.934 412.36C232.031 412.242 232.119 412.184 232.197 412.184C232.217 412.184 232.275 412.216 232.373 412.281C232.633 412.451 232.907 412.594 233.193 412.711C233.486 412.828 233.835 412.887 234.238 412.887C235.371 412.887 235.938 412.418 235.938 411.481C235.938 411.214 235.882 410.989 235.771 410.807C235.667 410.625 235.488 410.465 235.234 410.328C234.987 410.185 234.645 410.048 234.209 409.918C233.584 409.736 233.096 409.528 232.744 409.293C232.399 409.059 232.155 408.785 232.012 408.473C231.868 408.154 231.797 407.77 231.797 407.321C231.797 406.839 231.917 406.406 232.158 406.022C232.406 405.638 232.747 405.338 233.184 405.123C233.626 404.908 234.124 404.801 234.678 404.801C235.062 404.801 235.43 404.837 235.781 404.908C236.139 404.98 236.426 405.074 236.641 405.192C236.862 405.302 236.973 405.42 236.973 405.543C236.973 405.634 236.94 405.758 236.875 405.914C236.816 406.064 236.742 406.198 236.65 406.315C236.559 406.425 236.478 406.481 236.406 406.481C236.393 406.481 236.312 406.442 236.162 406.364C236.012 406.279 235.82 406.204 235.586 406.139C235.358 406.067 235.104 406.031 234.824 406.031C234.382 406.031 234.014 406.132 233.721 406.334C233.434 406.53 233.291 406.793 233.291 407.125C233.291 407.516 233.395 407.828 233.604 408.063C233.812 408.297 234.157 408.489 234.639 408.639C235.381 408.867 235.947 409.095 236.338 409.323C236.729 409.55 237.005 409.83 237.168 410.162C237.337 410.488 237.422 410.918 237.422 411.451C237.422 411.959 237.285 412.421 237.012 412.838C236.738 413.248 236.367 413.574 235.898 413.815C235.43 414.049 234.912 414.166 234.346 414.166ZM239.852 402.731C239.389 402.731 239.158 402.604 239.158 402.35V401.324C239.158 401.071 239.389 400.944 239.852 400.944H240.057C240.525 400.944 240.76 401.071 240.76 401.324V402.35C240.76 402.604 240.525 402.731 240.057 402.731H239.852ZM239.92 414.03C239.458 414.03 239.227 413.903 239.227 413.649V405.27C239.227 405.016 239.458 404.889 239.92 404.889H239.988C240.457 404.889 240.691 405.016 240.691 405.27V413.649C240.691 413.903 240.457 414.03 239.988 414.03H239.92ZM246.734 414.098C245.426 414.098 244.426 413.707 243.736 412.926C243.053 412.138 242.711 410.996 242.711 409.498C242.711 408.001 243.059 406.849 243.756 406.041C244.452 405.227 245.445 404.821 246.734 404.821C248.01 404.821 248.987 405.224 249.664 406.031C250.341 406.832 250.68 407.988 250.68 409.498C250.68 411.002 250.344 412.145 249.674 412.926C249.01 413.707 248.03 414.098 246.734 414.098ZM246.686 412.848C247.532 412.848 248.157 412.574 248.561 412.028C248.964 411.474 249.166 410.621 249.166 409.469C249.166 408.31 248.964 407.454 248.561 406.901C248.157 406.347 247.532 406.071 246.686 406.071C245.846 406.071 245.227 406.347 244.83 406.901C244.433 407.448 244.234 408.304 244.234 409.469C244.234 410.628 244.43 411.481 244.82 412.028C245.217 412.574 245.839 412.848 246.686 412.848ZM253.334 414.03C253.087 414.03 252.908 414 252.797 413.942C252.686 413.877 252.631 413.779 252.631 413.649V407.555C252.631 406.8 252.595 406.256 252.523 405.924C252.452 405.586 252.416 405.4 252.416 405.367C252.416 405.224 252.523 405.123 252.738 405.065C252.96 405 253.168 404.967 253.363 404.967C253.526 404.967 253.646 405.055 253.725 405.231C253.803 405.406 253.858 405.586 253.891 405.768C253.93 405.95 253.956 406.067 253.969 406.119C254.333 405.709 254.753 405.39 255.229 405.162C255.71 404.934 256.195 404.821 256.684 404.821C257.569 404.821 258.259 405.071 258.754 405.573C259.255 406.067 259.506 406.751 259.506 407.623V413.649C259.506 413.779 259.451 413.877 259.34 413.942C259.229 414 259.053 414.03 258.812 414.03H258.734C258.5 414.03 258.327 414 258.217 413.942C258.106 413.877 258.051 413.779 258.051 413.649V407.77C258.051 407.236 257.895 406.823 257.582 406.53C257.276 406.23 256.843 406.08 256.283 406.08C255.893 406.08 255.499 406.191 255.102 406.412C254.711 406.627 254.372 406.923 254.086 407.301V413.649C254.086 413.779 254.031 413.877 253.92 413.942C253.809 414 253.637 414.03 253.402 414.03H253.334ZM266.25 414.03C266.003 414.03 265.824 414 265.713 413.942C265.602 413.877 265.547 413.779 265.547 413.649V407.555C265.547 406.8 265.511 406.256 265.439 405.924C265.368 405.586 265.332 405.4 265.332 405.367C265.332 405.224 265.439 405.123 265.654 405.065C265.876 405 266.084 404.967 266.279 404.967C266.436 404.967 266.553 405.052 266.631 405.221C266.709 405.384 266.777 405.615 266.836 405.914L266.885 406.119C267.503 405.253 268.174 404.821 268.896 404.821C269.229 404.821 269.479 404.882 269.648 405.006C269.818 405.123 269.902 405.283 269.902 405.485C269.902 405.68 269.867 405.888 269.795 406.11C269.73 406.324 269.652 406.432 269.561 406.432C269.515 406.432 269.434 406.412 269.316 406.373C269.212 406.328 269.108 406.295 269.004 406.276C268.9 406.25 268.766 406.237 268.604 406.237C268.337 406.237 268.083 406.315 267.842 406.471C267.607 406.627 267.409 406.8 267.246 406.989C267.083 407.177 267.002 407.281 267.002 407.301V413.649C267.002 413.779 266.947 413.877 266.836 413.942C266.725 414 266.553 414.03 266.318 414.03H266.25ZM275.047 414.098C273.608 414.098 272.537 413.724 271.834 412.975C271.137 412.22 270.789 411.067 270.789 409.518C270.789 407.981 271.131 406.816 271.814 406.022C272.498 405.221 273.504 404.821 274.832 404.821C276.017 404.821 276.909 405.205 277.508 405.973C278.113 406.741 278.416 407.867 278.416 409.352C278.416 409.417 278.38 409.508 278.309 409.625C278.243 409.736 278.162 409.837 278.064 409.928C277.973 410.013 277.895 410.055 277.83 410.055H272.352C272.423 411.025 272.671 411.735 273.094 412.184C273.523 412.627 274.168 412.848 275.027 412.848C275.509 412.848 275.923 412.789 276.268 412.672C276.619 412.555 276.958 412.412 277.283 412.242C277.316 412.229 277.365 412.207 277.43 412.174C277.495 412.142 277.54 412.125 277.566 412.125C277.638 412.125 277.719 412.184 277.811 412.301C277.908 412.412 277.99 412.539 278.055 412.682C278.126 412.819 278.162 412.92 278.162 412.985C278.162 413.128 278.019 413.287 277.732 413.463C277.446 413.639 277.062 413.789 276.58 413.912C276.105 414.036 275.594 414.098 275.047 414.098ZM276.863 408.805C276.863 406.982 276.17 406.071 274.783 406.071C273.292 406.071 272.482 406.982 272.352 408.805H276.863ZM283.102 417.682C281.995 417.682 281.119 417.509 280.475 417.164C279.83 416.819 279.508 416.276 279.508 415.533C279.508 415.026 279.654 414.583 279.947 414.205C280.24 413.828 280.621 413.545 281.09 413.356L281.109 413.317C280.882 413.141 280.706 412.939 280.582 412.711C280.465 412.483 280.406 412.213 280.406 411.901C280.406 411.145 280.732 410.54 281.383 410.084C280.895 409.85 280.523 409.521 280.27 409.098C280.016 408.668 279.889 408.186 279.889 407.653C279.889 407.119 280.019 406.637 280.279 406.207C280.546 405.778 280.937 405.439 281.451 405.192C281.965 404.944 282.584 404.821 283.307 404.821C283.691 404.821 284.033 404.853 284.332 404.918H287.486C287.61 404.918 287.698 404.961 287.75 405.045C287.809 405.123 287.838 405.253 287.838 405.436V405.651C287.838 405.833 287.809 405.966 287.75 406.051C287.698 406.129 287.61 406.168 287.486 406.168C287.05 406.168 286.646 406.152 286.275 406.119L286.256 406.149C286.406 406.357 286.516 406.591 286.588 406.852C286.666 407.106 286.705 407.373 286.705 407.653C286.705 408.186 286.572 408.668 286.305 409.098C286.044 409.528 285.657 409.866 285.143 410.114C284.635 410.361 284.016 410.485 283.287 410.485C282.74 410.504 282.327 410.605 282.047 410.787C281.773 410.97 281.637 411.269 281.637 411.686C281.637 411.992 281.734 412.226 281.93 412.389C282.132 412.552 282.382 412.666 282.682 412.731C282.981 412.796 283.398 412.858 283.932 412.916L284.439 412.975C284.98 413.046 285.432 413.144 285.797 413.268C286.161 413.392 286.461 413.597 286.695 413.883C286.936 414.17 287.057 414.563 287.057 415.065C287.057 415.905 286.721 416.549 286.051 416.998C285.38 417.454 284.397 417.682 283.102 417.682ZM283.287 409.332C283.925 409.332 284.433 409.202 284.811 408.942C285.188 408.681 285.377 408.255 285.377 407.662C285.377 406.543 284.68 405.983 283.287 405.983C281.913 405.983 281.227 406.543 281.227 407.662C281.227 408.255 281.412 408.681 281.783 408.942C282.161 409.202 282.662 409.332 283.287 409.332ZM283.287 416.5C284.094 416.5 284.693 416.393 285.084 416.178C285.475 415.97 285.67 415.651 285.67 415.221C285.67 414.941 285.566 414.723 285.357 414.567C285.149 414.417 284.892 414.309 284.586 414.244C284.286 414.186 283.889 414.13 283.395 414.078C283.056 414.039 282.776 414.003 282.555 413.971C282.34 413.938 282.141 413.893 281.959 413.834C281.191 414.16 280.807 414.632 280.807 415.25C280.807 416.084 281.633 416.5 283.287 416.5ZM291.518 414.098C290.632 414.098 289.916 413.88 289.369 413.444C288.822 413.007 288.549 412.36 288.549 411.5C288.549 410.595 288.826 409.915 289.379 409.459C289.932 408.997 290.606 408.701 291.4 408.571C292.201 408.434 293.171 408.356 294.311 408.336V407.516C294.311 407.08 294.161 406.731 293.861 406.471C293.568 406.204 293.083 406.071 292.406 406.071C291.892 406.071 291.439 406.132 291.049 406.256C290.665 406.373 290.303 406.517 289.965 406.686C289.822 406.757 289.734 406.793 289.701 406.793C289.623 406.793 289.535 406.738 289.438 406.627C289.346 406.51 289.265 406.38 289.193 406.237C289.128 406.093 289.096 405.989 289.096 405.924C289.096 405.774 289.249 405.612 289.555 405.436C289.867 405.26 290.274 405.114 290.775 404.996C291.277 404.879 291.801 404.821 292.348 404.821C293.435 404.821 294.278 405.058 294.877 405.533C295.476 406.009 295.775 406.676 295.775 407.535V411.432C295.775 412.187 295.808 412.734 295.873 413.073C295.945 413.405 295.98 413.587 295.98 413.619C295.98 413.763 295.87 413.867 295.648 413.932C295.434 413.99 295.232 414.02 295.043 414.02C294.887 414.02 294.77 413.932 294.691 413.756C294.62 413.58 294.548 413.326 294.477 412.994L294.438 412.799C294.079 413.196 293.656 413.512 293.168 413.746C292.686 413.981 292.136 414.098 291.518 414.098ZM291.596 412.838C292.169 412.838 292.657 412.734 293.061 412.526C293.464 412.317 293.881 412.021 294.311 411.637V409.586C293.451 409.593 292.745 409.628 292.191 409.694C291.638 409.759 291.153 409.925 290.736 410.192C290.32 410.452 290.111 410.859 290.111 411.412C290.111 411.875 290.235 412.229 290.482 412.477C290.736 412.718 291.107 412.838 291.596 412.838ZM298.938 414.03C298.69 414.03 298.511 414 298.4 413.942C298.29 413.877 298.234 413.779 298.234 413.649V407.555C298.234 406.8 298.199 406.256 298.127 405.924C298.055 405.586 298.02 405.4 298.02 405.367C298.02 405.224 298.127 405.123 298.342 405.065C298.563 405 298.771 404.967 298.967 404.967C299.123 404.967 299.24 405.052 299.318 405.221C299.396 405.384 299.465 405.615 299.523 405.914L299.572 406.119C300.191 405.253 300.861 404.821 301.584 404.821C301.916 404.821 302.167 404.882 302.336 405.006C302.505 405.123 302.59 405.283 302.59 405.485C302.59 405.68 302.554 405.888 302.482 406.11C302.417 406.324 302.339 406.432 302.248 406.432C302.202 406.432 302.121 406.412 302.004 406.373C301.9 406.328 301.796 406.295 301.691 406.276C301.587 406.25 301.454 406.237 301.291 406.237C301.024 406.237 300.77 406.315 300.529 406.471C300.295 406.627 300.096 406.8 299.934 406.989C299.771 407.177 299.689 407.281 299.689 407.301V413.649C299.689 413.779 299.634 413.877 299.523 413.942C299.413 414 299.24 414.03 299.006 414.03H298.938ZM306.787 414.098C306.11 414.098 305.518 413.903 305.01 413.512C304.502 413.115 304.108 412.565 303.828 411.862C303.555 411.158 303.418 410.361 303.418 409.469C303.418 408.486 303.564 407.646 303.857 406.949C304.157 406.246 304.574 405.716 305.107 405.358C305.641 405 306.257 404.821 306.953 404.821C307.454 404.821 307.897 404.895 308.281 405.045C308.672 405.195 309.056 405.413 309.434 405.699V401.324C309.434 401.071 309.661 400.944 310.117 400.944H310.195C310.658 400.944 310.889 401.071 310.889 401.324V411.432C310.889 412.187 310.924 412.734 310.996 413.073C311.068 413.405 311.104 413.587 311.104 413.619C311.104 413.763 310.993 413.867 310.771 413.932C310.557 413.99 310.355 414.02 310.166 414.02C310.036 414.02 309.932 413.958 309.854 413.834C309.775 413.711 309.72 413.587 309.688 413.463C309.661 413.333 309.616 413.112 309.551 412.799C308.724 413.665 307.803 414.098 306.787 414.098ZM307.09 412.838C307.474 412.838 307.871 412.734 308.281 412.526C308.698 412.317 309.082 412.021 309.434 411.637V406.881C308.809 406.36 308.096 406.1 307.295 406.1C306.52 406.119 305.934 406.403 305.537 406.949C305.146 407.496 304.951 408.291 304.951 409.332C304.951 410.452 305.133 411.318 305.498 411.93C305.869 412.535 306.4 412.838 307.09 412.838ZM314.051 402.731C313.589 402.731 313.357 402.604 313.357 402.35V401.324C313.357 401.071 313.589 400.944 314.051 400.944H314.256C314.725 400.944 314.959 401.071 314.959 401.324V402.35C314.959 402.604 314.725 402.731 314.256 402.731H314.051ZM314.119 414.03C313.657 414.03 313.426 413.903 313.426 413.649V405.27C313.426 405.016 313.657 404.889 314.119 404.889H314.188C314.656 404.889 314.891 405.016 314.891 405.27V413.649C314.891 413.903 314.656 414.03 314.188 414.03H314.119ZM318.15 414.03C317.903 414.03 317.724 414 317.613 413.942C317.503 413.877 317.447 413.779 317.447 413.649V407.555C317.447 406.8 317.411 406.256 317.34 405.924C317.268 405.586 317.232 405.4 317.232 405.367C317.232 405.224 317.34 405.123 317.555 405.065C317.776 405 317.984 404.967 318.18 404.967C318.342 404.967 318.463 405.055 318.541 405.231C318.619 405.406 318.674 405.586 318.707 405.768C318.746 405.95 318.772 406.067 318.785 406.119C319.15 405.709 319.57 405.39 320.045 405.162C320.527 404.934 321.012 404.821 321.5 404.821C322.385 404.821 323.076 405.071 323.57 405.573C324.072 406.067 324.322 406.751 324.322 407.623V413.649C324.322 413.779 324.267 413.877 324.156 413.942C324.046 414 323.87 414.03 323.629 414.03H323.551C323.316 414.03 323.144 414 323.033 413.942C322.923 413.877 322.867 413.779 322.867 413.649V407.77C322.867 407.236 322.711 406.823 322.398 406.53C322.092 406.23 321.66 406.08 321.1 406.08C320.709 406.08 320.315 406.191 319.918 406.412C319.527 406.627 319.189 406.923 318.902 407.301V413.649C318.902 413.779 318.847 413.877 318.736 413.942C318.626 414 318.453 414.03 318.219 414.03H318.15ZM329.516 417.682C328.409 417.682 327.533 417.509 326.889 417.164C326.244 416.819 325.922 416.276 325.922 415.533C325.922 415.026 326.068 414.583 326.361 414.205C326.654 413.828 327.035 413.545 327.504 413.356L327.523 413.317C327.296 413.141 327.12 412.939 326.996 412.711C326.879 412.483 326.82 412.213 326.82 411.901C326.82 411.145 327.146 410.54 327.797 410.084C327.309 409.85 326.938 409.521 326.684 409.098C326.43 408.668 326.303 408.186 326.303 407.653C326.303 407.119 326.433 406.637 326.693 406.207C326.96 405.778 327.351 405.439 327.865 405.192C328.38 404.944 328.998 404.821 329.721 404.821C330.105 404.821 330.447 404.853 330.746 404.918H333.9C334.024 404.918 334.112 404.961 334.164 405.045C334.223 405.123 334.252 405.253 334.252 405.436V405.651C334.252 405.833 334.223 405.966 334.164 406.051C334.112 406.129 334.024 406.168 333.9 406.168C333.464 406.168 333.061 406.152 332.689 406.119L332.67 406.149C332.82 406.357 332.93 406.591 333.002 406.852C333.08 407.106 333.119 407.373 333.119 407.653C333.119 408.186 332.986 408.668 332.719 409.098C332.458 409.528 332.071 409.866 331.557 410.114C331.049 410.361 330.43 410.485 329.701 410.485C329.154 410.504 328.741 410.605 328.461 410.787C328.188 410.97 328.051 411.269 328.051 411.686C328.051 411.992 328.148 412.226 328.344 412.389C328.546 412.552 328.796 412.666 329.096 412.731C329.395 412.796 329.812 412.858 330.346 412.916L330.854 412.975C331.394 413.046 331.846 413.144 332.211 413.268C332.576 413.392 332.875 413.597 333.109 413.883C333.35 414.17 333.471 414.563 333.471 415.065C333.471 415.905 333.135 416.549 332.465 416.998C331.794 417.454 330.811 417.682 329.516 417.682ZM329.701 409.332C330.339 409.332 330.847 409.202 331.225 408.942C331.602 408.681 331.791 408.255 331.791 407.662C331.791 406.543 331.094 405.983 329.701 405.983C328.327 405.983 327.641 406.543 327.641 407.662C327.641 408.255 327.826 408.681 328.197 408.942C328.575 409.202 329.076 409.332 329.701 409.332ZM329.701 416.5C330.508 416.5 331.107 416.393 331.498 416.178C331.889 415.97 332.084 415.651 332.084 415.221C332.084 414.941 331.98 414.723 331.771 414.567C331.563 414.417 331.306 414.309 331 414.244C330.701 414.186 330.303 414.13 329.809 414.078C329.47 414.039 329.19 414.003 328.969 413.971C328.754 413.938 328.555 413.893 328.373 413.834C327.605 414.16 327.221 414.632 327.221 415.25C327.221 416.084 328.048 416.5 329.701 416.5ZM194.773 438.098C193.465 438.098 192.465 437.707 191.775 436.926C191.092 436.138 190.75 434.996 190.75 433.498C190.75 432.001 191.098 430.849 191.795 430.041C192.492 429.227 193.484 428.821 194.773 428.821C196.049 428.821 197.026 429.224 197.703 430.031C198.38 430.832 198.719 431.988 198.719 433.498C198.719 435.002 198.383 436.145 197.713 436.926C197.049 437.707 196.069 438.098 194.773 438.098ZM194.725 436.848C195.571 436.848 196.196 436.574 196.6 436.028C197.003 435.474 197.205 434.621 197.205 433.469C197.205 432.31 197.003 431.454 196.6 430.901C196.196 430.347 195.571 430.071 194.725 430.071C193.885 430.071 193.266 430.347 192.869 430.901C192.472 431.448 192.273 432.304 192.273 433.469C192.273 434.628 192.469 435.481 192.859 436.028C193.257 436.574 193.878 436.848 194.725 436.848ZM203.307 438.098C202.421 438.098 201.728 437.851 201.227 437.356C200.725 436.854 200.475 436.164 200.475 435.285V429.27C200.475 429.016 200.709 428.889 201.178 428.889H201.246C201.708 428.889 201.939 429.016 201.939 429.27V435.149C201.939 435.683 202.092 436.099 202.398 436.399C202.711 436.692 203.147 436.838 203.707 436.838C204.098 436.838 204.488 436.731 204.879 436.516C205.27 436.295 205.608 435.995 205.895 435.617V429.27C205.895 429.016 206.126 428.889 206.588 428.889H206.656C207.125 428.889 207.359 429.016 207.359 429.27V435.432C207.359 436.187 207.392 436.734 207.457 437.073C207.522 437.405 207.555 437.587 207.555 437.619C207.555 437.763 207.447 437.867 207.232 437.932C207.018 437.99 206.816 438.02 206.627 438.02C206.464 438.02 206.344 437.929 206.266 437.746C206.188 437.558 206.129 437.365 206.09 437.17C206.057 436.975 206.035 436.851 206.021 436.799C205.657 437.209 205.234 437.528 204.752 437.756C204.277 437.984 203.795 438.098 203.307 438.098ZM210.609 438.03C210.362 438.03 210.183 438 210.072 437.942C209.962 437.877 209.906 437.779 209.906 437.649V431.555C209.906 430.8 209.87 430.256 209.799 429.924C209.727 429.586 209.691 429.4 209.691 429.367C209.691 429.224 209.799 429.123 210.014 429.065C210.235 429 210.443 428.967 210.639 428.967C210.795 428.967 210.912 429.052 210.99 429.221C211.068 429.384 211.137 429.615 211.195 429.914L211.244 430.119C211.863 429.253 212.533 428.821 213.256 428.821C213.588 428.821 213.839 428.882 214.008 429.006C214.177 429.123 214.262 429.283 214.262 429.485C214.262 429.68 214.226 429.888 214.154 430.11C214.089 430.324 214.011 430.432 213.92 430.432C213.874 430.432 213.793 430.412 213.676 430.373C213.572 430.328 213.467 430.295 213.363 430.276C213.259 430.25 213.126 430.237 212.963 430.237C212.696 430.237 212.442 430.315 212.201 430.471C211.967 430.627 211.768 430.8 211.605 430.989C211.443 431.177 211.361 431.281 211.361 431.301V437.649C211.361 437.779 211.306 437.877 211.195 437.942C211.085 438 210.912 438.03 210.678 438.03H210.609ZM221.24 438.166C220.752 438.166 220.296 438.104 219.873 437.981C219.45 437.857 219.111 437.707 218.857 437.531C218.61 437.349 218.486 437.19 218.486 437.053C218.486 436.988 218.519 436.884 218.584 436.74C218.656 436.597 218.737 436.47 218.828 436.36C218.926 436.242 219.014 436.184 219.092 436.184C219.111 436.184 219.17 436.216 219.268 436.281C219.528 436.451 219.801 436.594 220.088 436.711C220.381 436.828 220.729 436.887 221.133 436.887C222.266 436.887 222.832 436.418 222.832 435.481C222.832 435.214 222.777 434.989 222.666 434.807C222.562 434.625 222.383 434.465 222.129 434.328C221.882 434.185 221.54 434.048 221.104 433.918C220.479 433.736 219.99 433.528 219.639 433.293C219.294 433.059 219.049 432.785 218.906 432.473C218.763 432.154 218.691 431.77 218.691 431.321C218.691 430.839 218.812 430.406 219.053 430.022C219.3 429.638 219.642 429.338 220.078 429.123C220.521 428.908 221.019 428.801 221.572 428.801C221.956 428.801 222.324 428.837 222.676 428.908C223.034 428.98 223.32 429.074 223.535 429.192C223.757 429.302 223.867 429.42 223.867 429.543C223.867 429.634 223.835 429.758 223.77 429.914C223.711 430.064 223.636 430.198 223.545 430.315C223.454 430.425 223.372 430.481 223.301 430.481C223.288 430.481 223.206 430.442 223.057 430.364C222.907 430.279 222.715 430.204 222.48 430.139C222.253 430.067 221.999 430.031 221.719 430.031C221.276 430.031 220.908 430.132 220.615 430.334C220.329 430.53 220.186 430.793 220.186 431.125C220.186 431.516 220.29 431.828 220.498 432.063C220.706 432.297 221.051 432.489 221.533 432.639C222.275 432.867 222.842 433.095 223.232 433.323C223.623 433.55 223.9 433.83 224.062 434.162C224.232 434.488 224.316 434.918 224.316 435.451C224.316 435.959 224.18 436.421 223.906 436.838C223.633 437.248 223.262 437.574 222.793 437.815C222.324 438.049 221.807 438.166 221.24 438.166ZM229.754 438.098C228.315 438.098 227.244 437.724 226.541 436.975C225.844 436.22 225.496 435.067 225.496 433.518C225.496 431.981 225.838 430.816 226.521 430.022C227.205 429.221 228.211 428.821 229.539 428.821C230.724 428.821 231.616 429.205 232.215 429.973C232.82 430.741 233.123 431.867 233.123 433.352C233.123 433.417 233.087 433.508 233.016 433.625C232.951 433.736 232.869 433.837 232.771 433.928C232.68 434.013 232.602 434.055 232.537 434.055H227.059C227.13 435.025 227.378 435.735 227.801 436.184C228.23 436.627 228.875 436.848 229.734 436.848C230.216 436.848 230.63 436.789 230.975 436.672C231.326 436.555 231.665 436.412 231.99 436.242C232.023 436.229 232.072 436.207 232.137 436.174C232.202 436.142 232.247 436.125 232.273 436.125C232.345 436.125 232.426 436.184 232.518 436.301C232.615 436.412 232.697 436.539 232.762 436.682C232.833 436.819 232.869 436.92 232.869 436.985C232.869 437.128 232.726 437.287 232.439 437.463C232.153 437.639 231.769 437.789 231.287 437.912C230.812 438.036 230.301 438.098 229.754 438.098ZM231.57 432.805C231.57 430.982 230.877 430.071 229.49 430.071C227.999 430.071 227.189 430.982 227.059 432.805H231.57ZM235.68 438.03C235.432 438.03 235.253 438 235.143 437.942C235.032 437.877 234.977 437.779 234.977 437.649V431.555C234.977 430.8 234.941 430.256 234.869 429.924C234.798 429.586 234.762 429.4 234.762 429.367C234.762 429.224 234.869 429.123 235.084 429.065C235.305 429 235.514 428.967 235.709 428.967C235.865 428.967 235.982 429.052 236.061 429.221C236.139 429.384 236.207 429.615 236.266 429.914L236.314 430.119C236.933 429.253 237.604 428.821 238.326 428.821C238.658 428.821 238.909 428.882 239.078 429.006C239.247 429.123 239.332 429.283 239.332 429.485C239.332 429.68 239.296 429.888 239.225 430.11C239.16 430.324 239.081 430.432 238.99 430.432C238.945 430.432 238.863 430.412 238.746 430.373C238.642 430.328 238.538 430.295 238.434 430.276C238.329 430.25 238.196 430.237 238.033 430.237C237.766 430.237 237.512 430.315 237.271 430.471C237.037 430.627 236.839 430.8 236.676 430.989C236.513 431.177 236.432 431.281 236.432 431.301V437.649C236.432 437.779 236.376 437.877 236.266 437.942C236.155 438 235.982 438.03 235.748 438.03H235.68ZM243.178 438.03C242.768 438.03 242.533 437.938 242.475 437.756L239.682 429.406C239.643 429.289 239.623 429.214 239.623 429.182C239.623 429.091 239.685 429.019 239.809 428.967C239.932 428.915 240.121 428.889 240.375 428.889H240.463C240.867 428.889 241.098 428.98 241.156 429.162L242.924 434.699C243.067 435.129 243.233 435.715 243.422 436.457L243.529 436.867H243.607L243.725 436.35C243.868 435.666 244.001 435.129 244.125 434.739L245.912 429.162C245.971 428.98 246.208 428.889 246.625 428.889H246.674C247.11 428.889 247.328 428.987 247.328 429.182C247.328 429.247 247.305 429.325 247.26 429.416L244.477 437.756C244.418 437.938 244.184 438.03 243.773 438.03H243.178ZM249.387 426.731C248.924 426.731 248.693 426.604 248.693 426.35V425.324C248.693 425.071 248.924 424.944 249.387 424.944H249.592C250.061 424.944 250.295 425.071 250.295 425.324V426.35C250.295 426.604 250.061 426.731 249.592 426.731H249.387ZM249.455 438.03C248.993 438.03 248.762 437.903 248.762 437.649V429.27C248.762 429.016 248.993 428.889 249.455 428.889H249.523C249.992 428.889 250.227 429.016 250.227 429.27V437.649C250.227 437.903 249.992 438.03 249.523 438.03H249.455ZM256.465 438.098C255.026 438.098 253.952 437.73 253.242 436.994C252.539 436.252 252.188 435.061 252.188 433.42C252.188 431.76 252.581 430.578 253.369 429.875C254.157 429.172 255.137 428.821 256.309 428.821C256.745 428.821 257.165 428.86 257.568 428.938C257.972 429.009 258.298 429.107 258.545 429.231C258.792 429.354 258.916 429.485 258.916 429.621C258.916 429.712 258.883 429.833 258.818 429.983C258.76 430.132 258.685 430.266 258.594 430.383C258.509 430.494 258.431 430.549 258.359 430.549C258.34 430.549 258.311 430.543 258.271 430.53C258.232 430.51 258.197 430.494 258.164 430.481C257.578 430.207 256.947 430.071 256.27 430.071C255.469 430.071 254.85 430.334 254.414 430.862C253.978 431.382 253.76 432.222 253.76 433.381C253.76 434.201 253.848 434.865 254.023 435.373C254.199 435.875 254.482 436.246 254.873 436.487C255.27 436.727 255.798 436.848 256.455 436.848C257.178 436.848 257.829 436.698 258.408 436.399C258.467 436.386 258.509 436.373 258.535 436.36C258.568 436.34 258.59 436.33 258.604 436.33C258.675 436.33 258.757 436.386 258.848 436.496C258.939 436.607 259.017 436.734 259.082 436.877C259.154 437.02 259.189 437.134 259.189 437.219C259.189 437.356 259.066 437.492 258.818 437.629C258.571 437.766 258.236 437.88 257.812 437.971C257.396 438.056 256.947 438.098 256.465 438.098ZM264.422 438.098C262.983 438.098 261.912 437.724 261.209 436.975C260.512 436.22 260.164 435.067 260.164 433.518C260.164 431.981 260.506 430.816 261.189 430.022C261.873 429.221 262.879 428.821 264.207 428.821C265.392 428.821 266.284 429.205 266.883 429.973C267.488 430.741 267.791 431.867 267.791 433.352C267.791 433.417 267.755 433.508 267.684 433.625C267.618 433.736 267.537 433.837 267.439 433.928C267.348 434.013 267.27 434.055 267.205 434.055H261.727C261.798 435.025 262.046 435.735 262.469 436.184C262.898 436.627 263.543 436.848 264.402 436.848C264.884 436.848 265.298 436.789 265.643 436.672C265.994 436.555 266.333 436.412 266.658 436.242C266.691 436.229 266.74 436.207 266.805 436.174C266.87 436.142 266.915 436.125 266.941 436.125C267.013 436.125 267.094 436.184 267.186 436.301C267.283 436.412 267.365 436.539 267.43 436.682C267.501 436.819 267.537 436.92 267.537 436.985C267.537 437.128 267.394 437.287 267.107 437.463C266.821 437.639 266.437 437.789 265.955 437.912C265.48 438.036 264.969 438.098 264.422 438.098ZM266.238 432.805C266.238 430.982 265.545 430.071 264.158 430.071C262.667 430.071 261.857 430.982 261.727 432.805H266.238ZM271.451 438.166C270.963 438.166 270.507 438.104 270.084 437.981C269.661 437.857 269.322 437.707 269.068 437.531C268.821 437.349 268.697 437.19 268.697 437.053C268.697 436.988 268.73 436.884 268.795 436.74C268.867 436.597 268.948 436.47 269.039 436.36C269.137 436.242 269.225 436.184 269.303 436.184C269.322 436.184 269.381 436.216 269.479 436.281C269.739 436.451 270.012 436.594 270.299 436.711C270.592 436.828 270.94 436.887 271.344 436.887C272.477 436.887 273.043 436.418 273.043 435.481C273.043 435.214 272.988 434.989 272.877 434.807C272.773 434.625 272.594 434.465 272.34 434.328C272.092 434.185 271.751 434.048 271.314 433.918C270.689 433.736 270.201 433.528 269.85 433.293C269.505 433.059 269.26 432.785 269.117 432.473C268.974 432.154 268.902 431.77 268.902 431.321C268.902 430.839 269.023 430.406 269.264 430.022C269.511 429.638 269.853 429.338 270.289 429.123C270.732 428.908 271.23 428.801 271.783 428.801C272.167 428.801 272.535 428.837 272.887 428.908C273.245 428.98 273.531 429.074 273.746 429.192C273.967 429.302 274.078 429.42 274.078 429.543C274.078 429.634 274.046 429.758 273.98 429.914C273.922 430.064 273.847 430.198 273.756 430.315C273.665 430.425 273.583 430.481 273.512 430.481C273.499 430.481 273.417 430.442 273.268 430.364C273.118 430.279 272.926 430.204 272.691 430.139C272.464 430.067 272.21 430.031 271.93 430.031C271.487 430.031 271.119 430.132 270.826 430.334C270.54 430.53 270.396 430.793 270.396 431.125C270.396 431.516 270.501 431.828 270.709 432.063C270.917 432.297 271.262 432.489 271.744 432.639C272.486 432.867 273.053 433.095 273.443 433.323C273.834 433.55 274.111 433.83 274.273 434.162C274.443 434.488 274.527 434.918 274.527 435.451C274.527 435.959 274.391 436.421 274.117 436.838C273.844 437.248 273.473 437.574 273.004 437.815C272.535 438.049 272.018 438.166 271.451 438.166ZM276.332 438.03C276.091 438.03 275.915 438 275.805 437.942C275.694 437.877 275.639 437.779 275.639 437.649V436.506C275.639 436.252 275.87 436.125 276.332 436.125H276.625C277.087 436.125 277.318 436.252 277.318 436.506V437.649C277.318 437.779 277.263 437.877 277.152 437.942C277.042 438 276.866 438.03 276.625 438.03H276.332Z" fill="#383B43"/>
<defs>
<linearGradient id="paint0_linear_213_37" x1="234" y1="88" x2="234" y2="500" gradientUnits="userSpaceOnUse">
<stop stop-color="#F7F9FF"/>
<stop offset="1" stop-color="#A1B6FE"/>
</linearGradient>
</defs>
</svg>
