<svg width="91" height="91" viewBox="0 0 91 91" fill="none" xmlns="http://www.w3.org/2000/svg">
<circle cx="45.2486" cy="45.5001" r="44.3497" stroke="white"/>
<path d="M59.0693 38.1712L59.0695 38.1713L59.0706 38.1677C61.123 32.6967 64.9689 27.7042 72.0978 27.3769L61.1473 54.2479C61.147 54.2487 61.1467 54.2495 61.1463 54.2503C60.0072 56.9663 58.3914 59.5367 56.1036 61.426C53.9089 63.2384 51.0742 64.4426 47.3897 64.5299L47.3055 63.9481L46.9182 61.2667C46.5974 59.0453 46.1694 56.078 45.7404 53.0942C45.3113 50.1103 44.8812 47.1102 44.5562 44.823C44.3937 43.6794 44.2575 42.7145 44.1609 42.0191C44.1126 41.6714 44.0743 41.3917 44.0476 41.1911C44.0342 41.0907 44.0239 41.0111 44.0167 40.9531C44.0086 40.8881 44.0064 40.8652 44.0065 40.8664L43.0358 40.7333C42.9403 41.0053 41.6942 44.2371 40.4646 47.4195C39.8514 49.0065 39.2444 50.5759 38.7906 51.7486L38.2434 53.1627L38.0905 53.5577L38.0503 53.6616L38.04 53.6882L38.0375 53.6946L38.0374 53.695L38.037 53.696C35.8582 59.2276 31.7974 64.3118 24.3715 64.5302L18.2412 27.3765C23.1128 27.6846 28.8201 31.7364 29.2523 38.1813L29.2527 38.1889L29.2544 38.2189L29.261 38.3363L29.2863 38.7826L29.3766 40.3839C29.4516 41.7139 29.5518 43.4986 29.6532 45.3174C29.8562 48.9613 30.0626 52.7262 30.0796 53.2656L31.0457 53.4301L36.9452 38.1651L36.9452 38.1651L36.9468 38.1609C39.0298 32.6231 42.8637 27.5366 49.9004 27.3339C51.0291 35.9809 52.1476 44.6292 53.2557 53.2789L54.2285 53.3658C54.4111 52.7871 55.6211 48.9893 56.7859 45.3345L58.3645 40.3826L58.8765 38.7767L59.0192 38.3292L59.0567 38.2116L59.0663 38.1814L59.0687 38.1738L59.0693 38.1719L59.0695 38.1714C59.0695 38.1714 59.0695 38.1714 59.0693 38.1713C59.0693 38.1713 59.0693 38.1713 59.0693 38.1712Z" fill="white" stroke="white"/>
</svg>
